<svg width="437" height="207" viewBox="0 0 437 207" fill="none" xmlns="http://www.w3.org/2000/svg">
<rect width="437" height="207" rx="24" fill="#71C1F4"/>
<path d="M22.635 34V23.5H26.73C27.65 23.5 28.435 23.645 29.085 23.935C29.735 24.225 30.235 24.645 30.585 25.195C30.935 25.745 31.11 26.4 31.11 27.16C31.11 27.92 30.935 28.575 30.585 29.125C30.235 29.665 29.735 30.085 29.085 30.385C28.435 30.675 27.65 30.82 26.73 30.82H23.46L24.135 30.115V34H22.635ZM24.135 30.265L23.46 29.515H26.685C27.645 29.515 28.37 29.31 28.86 28.9C29.36 28.49 29.61 27.91 29.61 27.16C29.61 26.41 29.36 25.83 28.86 25.42C28.37 25.01 27.645 24.805 26.685 24.805H23.46L24.135 24.055V30.265ZM33.4055 37C33.0255 37 32.6555 36.935 32.2955 36.805C31.9355 36.685 31.6255 36.505 31.3655 36.265L31.9805 35.185C32.1805 35.375 32.4005 35.52 32.6405 35.62C32.8805 35.72 33.1355 35.77 33.4055 35.77C33.7555 35.77 34.0455 35.68 34.2755 35.5C34.5055 35.32 34.7205 35 34.9205 34.54L35.4155 33.445L35.5655 33.265L38.6855 26.05H40.0955L36.2405 34.795C36.0105 35.355 35.7505 35.795 35.4605 36.115C35.1805 36.435 34.8705 36.66 34.5305 36.79C34.1905 36.93 33.8155 37 33.4055 37ZM35.2955 34.255L31.6655 26.05H33.1655L36.2555 33.13L35.2955 34.255ZM44.8151 34.09C44.0051 34.09 43.2801 33.915 42.6401 33.565C42.0101 33.215 41.5151 32.735 41.1551 32.125C40.7951 31.515 40.6151 30.815 40.6151 30.025C40.6151 29.235 40.7951 28.535 41.1551 27.925C41.5151 27.315 42.0101 26.84 42.6401 26.5C43.2801 26.15 44.0051 25.975 44.8151 25.975C45.5351 25.975 46.1751 26.12 46.7351 26.41C47.3051 26.69 47.7451 27.11 48.0551 27.67L46.9601 28.375C46.7001 27.985 46.3801 27.7 46.0001 27.52C45.6301 27.33 45.2301 27.235 44.8001 27.235C44.2801 27.235 43.8151 27.35 43.4051 27.58C42.9951 27.81 42.6701 28.135 42.4301 28.555C42.1901 28.965 42.0701 29.455 42.0701 30.025C42.0701 30.595 42.1901 31.09 42.4301 31.51C42.6701 31.93 42.9951 32.255 43.4051 32.485C43.8151 32.715 44.2801 32.83 44.8001 32.83C45.2301 32.83 45.6301 32.74 46.0001 32.56C46.3801 32.37 46.7001 32.08 46.9601 31.69L48.0551 32.38C47.7451 32.93 47.3051 33.355 46.7351 33.655C46.1751 33.945 45.5351 34.09 44.8151 34.09ZM53.2672 34.09C52.4572 34.09 51.7322 33.915 51.0922 33.565C50.4622 33.215 49.9672 32.735 49.6072 32.125C49.2472 31.515 49.0672 30.815 49.0672 30.025C49.0672 29.235 49.2472 28.535 49.6072 27.925C49.9672 27.315 50.4622 26.84 51.0922 26.5C51.7322 26.15 52.4572 25.975 53.2672 25.975C53.9872 25.975 54.6272 26.12 55.1872 26.41C55.7572 26.69 56.1972 27.11 56.5072 27.67L55.4122 28.375C55.1522 27.985 54.8322 27.7 54.4522 27.52C54.0822 27.33 53.6822 27.235 53.2522 27.235C52.7322 27.235 52.2672 27.35 51.8572 27.58C51.4472 27.81 51.1222 28.135 50.8822 28.555C50.6422 28.965 50.5222 29.455 50.5222 30.025C50.5222 30.595 50.6422 31.09 50.8822 31.51C51.1222 31.93 51.4472 32.255 51.8572 32.485C52.2672 32.715 52.7322 32.83 53.2522 32.83C53.6822 32.83 54.0822 32.74 54.4522 32.56C54.8322 32.37 55.1522 32.08 55.4122 31.69L56.5072 32.38C56.1972 32.93 55.7572 33.355 55.1872 33.655C54.6272 33.945 53.9872 34.09 53.2672 34.09ZM64.1316 34L61.0566 30.13L62.2416 29.41L65.8266 34H64.1316ZM58.3716 34V26.05H59.8116V34H58.3716ZM59.3766 30.64V29.41H62.0016V30.64H59.3766ZM62.3616 30.19L61.0266 30.01L64.0716 26.05H65.6166L62.3616 30.19ZM67.3364 34V26.05H68.7764V31.84L73.6514 26.05H74.9564V34H73.5164V28.21L68.6564 34H67.3364ZM77.7514 34V26.05H79.1914V31.84L84.0664 26.05H85.3714V34H83.9314V28.21L79.0714 34H77.7514ZM81.4714 25.015C80.7414 25.015 80.1664 24.84 79.7464 24.49C79.3364 24.13 79.1264 23.615 79.1164 22.945H80.0914C80.1014 23.325 80.2264 23.625 80.4664 23.845C80.7164 24.065 81.0464 24.175 81.4564 24.175C81.8664 24.175 82.1964 24.065 82.4464 23.845C82.6964 23.625 82.8264 23.325 82.8364 22.945H83.8414C83.8314 23.615 83.6164 24.13 83.1964 24.49C82.7764 24.84 82.2014 25.015 81.4714 25.015Z" fill="black"/>
<path d="M22.635 184V173.5H27.15C28.29 173.5 29.185 173.73 29.835 174.19C30.485 174.65 30.81 175.32 30.81 176.2C30.81 177.06 30.5 177.72 29.88 178.18C29.26 178.63 28.445 178.855 27.435 178.855L27.705 178.405C28.875 178.405 29.77 178.64 30.39 179.11C31.02 179.57 31.335 180.245 31.335 181.135C31.335 182.035 31.005 182.74 30.345 183.25C29.695 183.75 28.725 184 27.435 184H22.635ZM24.12 182.815H27.405C28.205 182.815 28.805 182.67 29.205 182.38C29.615 182.08 29.82 181.625 29.82 181.015C29.82 180.405 29.615 179.96 29.205 179.68C28.805 179.4 28.205 179.26 27.405 179.26H24.12V182.815ZM24.12 178.12H27.045C27.775 178.12 28.33 177.975 28.71 177.685C29.1 177.395 29.295 176.97 29.295 176.41C29.295 175.84 29.1 175.41 28.71 175.12C28.33 174.83 27.775 174.685 27.045 174.685H24.12V178.12ZM37.8161 184.09C37.1561 184.09 36.5511 183.94 36.0011 183.64C35.4611 183.33 35.0261 182.875 34.6961 182.275C34.3761 181.675 34.2161 180.925 34.2161 180.025C34.2161 179.125 34.3711 178.375 34.6811 177.775C35.0011 177.175 35.4311 176.725 35.9711 176.425C36.5211 176.125 37.1361 175.975 37.8161 175.975C38.5961 175.975 39.2861 176.145 39.8861 176.485C40.4861 176.825 40.9611 177.3 41.3111 177.91C41.6611 178.51 41.8361 179.215 41.8361 180.025C41.8361 180.835 41.6611 181.545 41.3111 182.155C40.9611 182.765 40.4861 183.24 39.8861 183.58C39.2861 183.92 38.5961 184.09 37.8161 184.09ZM33.6011 186.91V176.05H34.9811V178.195L34.8911 180.04L35.0411 181.885V186.91H33.6011ZM37.6961 182.83C38.2061 182.83 38.6611 182.715 39.0611 182.485C39.4711 182.255 39.7911 181.93 40.0211 181.51C40.2611 181.08 40.3811 180.585 40.3811 180.025C40.3811 179.455 40.2611 178.965 40.0211 178.555C39.7911 178.135 39.4711 177.81 39.0611 177.58C38.6611 177.35 38.2061 177.235 37.6961 177.235C37.1961 177.235 36.7411 177.35 36.3311 177.58C35.9311 177.81 35.6111 178.135 35.3711 178.555C35.1411 178.965 35.0261 179.455 35.0261 180.025C35.0261 180.585 35.1411 181.08 35.3711 181.51C35.6111 181.93 35.9311 182.255 36.3311 182.485C36.7411 182.715 37.1961 182.83 37.6961 182.83ZM47.4682 184.09C46.6182 184.09 45.8682 183.915 45.2182 183.565C44.5782 183.215 44.0782 182.735 43.7182 182.125C43.3682 181.515 43.1932 180.815 43.1932 180.025C43.1932 179.235 43.3632 178.535 43.7032 177.925C44.0532 177.315 44.5282 176.84 45.1282 176.5C45.7382 176.15 46.4232 175.975 47.1832 175.975C47.9532 175.975 48.6332 176.145 49.2232 176.485C49.8132 176.825 50.2732 177.305 50.6032 177.925C50.9432 178.535 51.1132 179.25 51.1132 180.07C51.1132 180.13 51.1082 180.2 51.0982 180.28C51.0982 180.36 51.0932 180.435 51.0832 180.505H44.3182V179.47H50.3332L49.7482 179.83C49.7582 179.32 49.6532 178.865 49.4332 178.465C49.2132 178.065 48.9082 177.755 48.5182 177.535C48.1382 177.305 47.6932 177.19 47.1832 177.19C46.6832 177.19 46.2382 177.305 45.8482 177.535C45.4582 177.755 45.1532 178.07 44.9332 178.48C44.7132 178.88 44.6032 179.34 44.6032 179.86V180.1C44.6032 180.63 44.7232 181.105 44.9632 181.525C45.2132 181.935 45.5582 182.255 45.9982 182.485C46.4382 182.715 46.9432 182.83 47.5132 182.83C47.9832 182.83 48.4082 182.75 48.7882 182.59C49.1782 182.43 49.5182 182.19 49.8082 181.87L50.6032 182.8C50.2432 183.22 49.7932 183.54 49.2532 183.76C48.7232 183.98 48.1282 184.09 47.4682 184.09ZM53.3471 184V176.05H54.8321L58.2521 181.93H57.6521L61.1621 176.05H62.5121V184H61.2071V177.67L61.4471 177.805L58.2371 183.1H57.6071L54.3821 177.7L54.6671 177.64V184H53.3471ZM70.3999 184V181.21L70.6249 181.48H68.0899C67.0299 181.48 66.1999 181.255 65.5999 180.805C65.0099 180.355 64.7149 179.7 64.7149 178.84C64.7149 177.92 65.0299 177.225 65.6599 176.755C66.2999 176.285 67.1499 176.05 68.2099 176.05H71.6899V184H70.3999ZM64.6399 184L66.7999 180.955H68.2849L66.1849 184H64.6399ZM70.3999 180.76V176.905L70.6249 177.31H68.2549C67.5949 177.31 67.0849 177.435 66.7249 177.685C66.3649 177.925 66.1849 178.325 66.1849 178.885C66.1849 179.925 66.8549 180.445 68.1949 180.445H70.6249L70.3999 180.76ZM74.8145 178.03C74.5345 178.03 74.2945 177.935 74.0945 177.745C73.8945 177.545 73.7945 177.295 73.7945 176.995C73.7945 176.695 73.8945 176.45 74.0945 176.26C74.2945 176.07 74.5345 175.975 74.8145 175.975C75.0845 175.975 75.3145 176.07 75.5045 176.26C75.7045 176.45 75.8045 176.695 75.8045 176.995C75.8045 177.295 75.7045 177.545 75.5045 177.745C75.3145 177.935 75.0845 178.03 74.8145 178.03ZM74.8145 184.09C74.5345 184.09 74.2945 183.995 74.0945 183.805C73.8945 183.605 73.7945 183.355 73.7945 183.055C73.7945 182.755 73.8945 182.51 74.0945 182.32C74.2945 182.13 74.5345 182.035 74.8145 182.035C75.0845 182.035 75.3145 182.13 75.5045 182.32C75.7045 182.51 75.8045 182.755 75.8045 183.055C75.8045 183.355 75.7045 183.605 75.5045 183.805C75.3145 183.995 75.0845 184.09 74.8145 184.09ZM84.4613 184.12C83.7213 184.12 83.0013 184.005 82.3013 183.775C81.6113 183.545 81.0463 183.235 80.6063 182.845L81.2963 181.66C81.6463 181.99 82.1013 182.26 82.6613 182.47C83.2213 182.68 83.8213 182.785 84.4613 182.785C85.2413 182.785 85.8463 182.62 86.2763 182.29C86.7163 181.95 86.9363 181.495 86.9363 180.925C86.9363 180.375 86.7263 179.935 86.3063 179.605C85.8963 179.265 85.2413 179.095 84.3413 179.095H83.5013V178.045L86.6213 174.205L86.8313 174.805H81.0863V173.5H88.0163V174.52L84.9113 178.345L84.1313 177.88H84.6263C85.8963 177.88 86.8463 178.165 87.4763 178.735C88.1163 179.305 88.4363 180.03 88.4363 180.91C88.4363 181.5 88.2913 182.04 88.0013 182.53C87.7113 183.02 87.2713 183.41 86.6813 183.7C86.1013 183.98 85.3613 184.12 84.4613 184.12ZM94.1252 184.12C93.3052 184.12 92.5702 183.91 91.9202 183.49C91.2802 183.07 90.7702 182.46 90.3902 181.66C90.0202 180.86 89.8352 179.89 89.8352 178.75C89.8352 177.61 90.0202 176.64 90.3902 175.84C90.7702 175.04 91.2802 174.43 91.9202 174.01C92.5702 173.59 93.3052 173.38 94.1252 173.38C94.9352 173.38 95.6652 173.59 96.3152 174.01C96.9652 174.43 97.4752 175.04 97.8452 175.84C98.2152 176.64 98.4002 177.61 98.4002 178.75C98.4002 179.89 98.2152 180.86 97.8452 181.66C97.4752 182.46 96.9652 183.07 96.3152 183.49C95.6652 183.91 94.9352 184.12 94.1252 184.12ZM94.1252 182.785C94.6752 182.785 95.1552 182.635 95.5652 182.335C95.9852 182.035 96.3102 181.585 96.5402 180.985C96.7802 180.385 96.9002 179.64 96.9002 178.75C96.9002 177.86 96.7802 177.115 96.5402 176.515C96.3102 175.915 95.9852 175.465 95.5652 175.165C95.1552 174.865 94.6752 174.715 94.1252 174.715C93.5752 174.715 93.0902 174.865 92.6702 175.165C92.2502 175.465 91.9202 175.915 91.6802 176.515C91.4502 177.115 91.3352 177.86 91.3352 178.75C91.3352 179.64 91.4502 180.385 91.6802 180.985C91.9202 181.585 92.2502 182.035 92.6702 182.335C93.0902 182.635 93.5752 182.785 94.1252 182.785ZM100.515 184V176.05H102L105.42 181.93H104.82L108.33 176.05H109.68V184H108.375V177.67L108.615 177.805L105.405 183.1H104.775L101.55 177.7L101.835 177.64V184H100.515ZM112.483 184V176.05H113.923V181.84L118.798 176.05H120.103V184H118.663V178.21L113.803 184H112.483ZM122.898 184V176.05H124.338V179.425H128.868V176.05H130.308V184H128.868V180.67H124.338V184H122.898Z" fill="black"/>
<path d="M227.7 184L223.89 178.825L225.105 178.075L229.41 184H227.7ZM220.635 184V173.5H222.105V184H220.635ZM221.655 179.38V178.06H225.06V179.38H221.655ZM225.24 178.915L223.86 178.705L227.625 173.5H229.23L225.24 178.915ZM234.01 184.09C233.21 184.09 232.5 183.915 231.88 183.565C231.26 183.215 230.77 182.735 230.41 182.125C230.05 181.505 229.87 180.805 229.87 180.025C229.87 179.235 230.05 178.535 230.41 177.925C230.77 177.315 231.26 176.84 231.88 176.5C232.5 176.15 233.21 175.975 234.01 175.975C234.8 175.975 235.505 176.15 236.125 176.5C236.755 176.84 237.245 177.315 237.595 177.925C237.955 178.525 238.135 179.225 238.135 180.025C238.135 180.815 237.955 181.515 237.595 182.125C237.245 182.735 236.755 183.215 236.125 183.565C235.505 183.915 234.8 184.09 234.01 184.09ZM234.01 182.83C234.52 182.83 234.975 182.715 235.375 182.485C235.785 182.255 236.105 181.93 236.335 181.51C236.565 181.08 236.68 180.585 236.68 180.025C236.68 179.455 236.565 178.965 236.335 178.555C236.105 178.135 235.785 177.81 235.375 177.58C234.975 177.35 234.52 177.235 234.01 177.235C233.5 177.235 233.045 177.35 232.645 177.58C232.245 177.81 231.925 178.135 231.685 178.555C231.445 178.965 231.325 179.455 231.325 180.025C231.325 180.585 231.445 181.08 231.685 181.51C231.925 181.93 232.245 182.255 232.645 182.485C233.045 182.715 233.5 182.83 234.01 182.83ZM238.836 183.985L238.926 182.77C238.996 182.78 239.061 182.79 239.121 182.8C239.181 182.81 239.236 182.815 239.286 182.815C239.606 182.815 239.856 182.705 240.036 182.485C240.226 182.265 240.366 181.975 240.456 181.615C240.546 181.245 240.611 180.83 240.651 180.37C240.691 179.91 240.721 179.45 240.741 178.99L240.876 176.05H246.981V184H245.541V176.89L245.886 177.31H241.806L242.136 176.875L242.031 179.08C242.001 179.78 241.946 180.435 241.866 181.045C241.786 181.655 241.661 182.19 241.491 182.65C241.331 183.11 241.106 183.47 240.816 183.73C240.536 183.99 240.171 184.12 239.721 184.12C239.591 184.12 239.451 184.105 239.301 184.075C239.161 184.055 239.006 184.025 238.836 183.985ZM249.765 184V176.05H251.205V181.84L256.08 176.05H257.385V184H255.945V178.21L251.085 184H249.765ZM265.19 180.745C264.77 180.945 264.335 181.105 263.885 181.225C263.445 181.335 262.99 181.39 262.52 181.39C261.56 181.39 260.8 181.165 260.24 180.715C259.69 180.265 259.415 179.57 259.415 178.63V176.05H260.855V178.54C260.855 179.11 261.03 179.53 261.38 179.8C261.74 180.07 262.22 180.205 262.82 180.205C263.2 180.205 263.59 180.155 263.99 180.055C264.4 179.955 264.8 179.815 265.19 179.635V180.745ZM265.085 184V176.05H266.525V184H265.085ZM272.861 184.09C272.011 184.09 271.261 183.915 270.611 183.565C269.971 183.215 269.471 182.735 269.111 182.125C268.761 181.515 268.586 180.815 268.586 180.025C268.586 179.235 268.756 178.535 269.096 177.925C269.446 177.315 269.921 176.84 270.521 176.5C271.131 176.15 271.816 175.975 272.576 175.975C273.346 175.975 274.026 176.145 274.616 176.485C275.206 176.825 275.666 177.305 275.996 177.925C276.336 178.535 276.506 179.25 276.506 180.07C276.506 180.13 276.501 180.2 276.491 180.28C276.491 180.36 276.486 180.435 276.476 180.505H269.711V179.47H275.726L275.141 179.83C275.151 179.32 275.046 178.865 274.826 178.465C274.606 178.065 274.301 177.755 273.911 177.535C273.531 177.305 273.086 177.19 272.576 177.19C272.076 177.19 271.631 177.305 271.241 177.535C270.851 177.755 270.546 178.07 270.326 178.48C270.106 178.88 269.996 179.34 269.996 179.86V180.1C269.996 180.63 270.116 181.105 270.356 181.525C270.606 181.935 270.951 182.255 271.391 182.485C271.831 182.715 272.336 182.83 272.906 182.83C273.376 182.83 273.801 182.75 274.181 182.59C274.571 182.43 274.911 182.19 275.201 181.87L275.996 182.8C275.636 183.22 275.186 183.54 274.646 183.76C274.116 183.98 273.521 184.09 272.861 184.09ZM282.205 184.09C281.395 184.09 280.67 183.915 280.03 183.565C279.4 183.215 278.905 182.735 278.545 182.125C278.185 181.515 278.005 180.815 278.005 180.025C278.005 179.235 278.185 178.535 278.545 177.925C278.905 177.315 279.4 176.84 280.03 176.5C280.67 176.15 281.395 175.975 282.205 175.975C282.925 175.975 283.565 176.12 284.125 176.41C284.695 176.69 285.135 177.11 285.445 177.67L284.35 178.375C284.09 177.985 283.77 177.7 283.39 177.52C283.02 177.33 282.62 177.235 282.19 177.235C281.67 177.235 281.205 177.35 280.795 177.58C280.385 177.81 280.06 178.135 279.82 178.555C279.58 178.965 279.46 179.455 279.46 180.025C279.46 180.595 279.58 181.09 279.82 181.51C280.06 181.93 280.385 182.255 280.795 182.485C281.205 182.715 281.67 182.83 282.19 182.83C282.62 182.83 283.02 182.74 283.39 182.56C283.77 182.37 284.09 182.08 284.35 181.69L285.445 182.38C285.135 182.93 284.695 183.355 284.125 183.655C283.565 183.945 282.925 184.09 282.205 184.09ZM288.782 184V176.935L289.142 177.31H285.872V176.05H293.132V177.31H289.877L290.222 176.935V184H288.782ZM294.604 184V176.05H298.294C299.224 176.05 299.954 176.23 300.484 176.59C301.024 176.94 301.294 177.44 301.294 178.09C301.294 178.74 301.039 179.245 300.529 179.605C300.029 179.955 299.364 180.13 298.534 180.13L298.759 179.74C299.709 179.74 300.414 179.915 300.874 180.265C301.334 180.615 301.564 181.13 301.564 181.81C301.564 182.5 301.304 183.04 300.784 183.43C300.274 183.81 299.489 184 298.429 184H294.604ZM296.014 182.89H298.324C298.924 182.89 299.374 182.8 299.674 182.62C299.974 182.43 300.124 182.13 300.124 181.72C300.124 181.3 299.984 180.995 299.704 180.805C299.434 180.605 299.004 180.505 298.414 180.505H296.014V182.89ZM296.014 179.47H298.174C298.724 179.47 299.139 179.37 299.419 179.17C299.709 178.96 299.854 178.67 299.854 178.3C299.854 177.92 299.709 177.635 299.419 177.445C299.139 177.255 298.724 177.16 298.174 177.16H296.014V179.47ZM307.223 184.09C306.423 184.09 305.713 183.915 305.093 183.565C304.473 183.215 303.983 182.735 303.623 182.125C303.263 181.505 303.083 180.805 303.083 180.025C303.083 179.235 303.263 178.535 303.623 177.925C303.983 177.315 304.473 176.84 305.093 176.5C305.713 176.15 306.423 175.975 307.223 175.975C308.013 175.975 308.718 176.15 309.338 176.5C309.968 176.84 310.458 177.315 310.808 177.925C311.168 178.525 311.348 179.225 311.348 180.025C311.348 180.815 311.168 181.515 310.808 182.125C310.458 182.735 309.968 183.215 309.338 183.565C308.718 183.915 308.013 184.09 307.223 184.09ZM307.223 182.83C307.733 182.83 308.188 182.715 308.588 182.485C308.998 182.255 309.318 181.93 309.548 181.51C309.778 181.08 309.893 180.585 309.893 180.025C309.893 179.455 309.778 178.965 309.548 178.555C309.318 178.135 308.998 177.81 308.588 177.58C308.188 177.35 307.733 177.235 307.223 177.235C306.713 177.235 306.258 177.35 305.858 177.58C305.458 177.81 305.138 178.135 304.898 178.555C304.658 178.965 304.538 179.455 304.538 180.025C304.538 180.585 304.658 181.08 304.898 181.51C305.138 181.93 305.458 182.255 305.858 182.485C306.258 182.715 306.713 182.83 307.223 182.83ZM319.781 184.105C319.181 184.105 318.591 184.03 318.011 183.88C317.441 183.72 316.931 183.495 316.481 183.205L316.916 182.11C317.296 182.35 317.731 182.54 318.221 182.68C318.711 182.81 319.206 182.875 319.706 182.875C320.166 182.875 320.561 182.82 320.891 182.71C321.231 182.6 321.491 182.45 321.671 182.26C321.851 182.06 321.941 181.83 321.941 181.57C321.941 181.2 321.776 180.915 321.446 180.715C321.116 180.515 320.656 180.415 320.066 180.415H318.626V179.38H319.976C320.326 179.38 320.631 179.34 320.891 179.26C321.151 179.18 321.351 179.06 321.491 178.9C321.641 178.73 321.716 178.535 321.716 178.315C321.716 178.075 321.631 177.87 321.461 177.7C321.291 177.53 321.051 177.4 320.741 177.31C320.441 177.22 320.086 177.175 319.676 177.175C319.276 177.185 318.866 177.24 318.446 177.34C318.036 177.44 317.616 177.595 317.186 177.805L316.796 176.68C317.276 176.45 317.746 176.275 318.206 176.155C318.676 176.025 319.141 175.955 319.601 175.945C320.291 175.925 320.906 176.005 321.446 176.185C321.986 176.355 322.411 176.605 322.721 176.935C323.041 177.265 323.201 177.655 323.201 178.105C323.201 178.485 323.081 178.825 322.841 179.125C322.601 179.415 322.281 179.645 321.881 179.815C321.481 179.985 321.021 180.07 320.501 180.07L320.561 179.725C321.451 179.725 322.151 179.9 322.661 180.25C323.171 180.6 323.426 181.075 323.426 181.675C323.426 182.155 323.266 182.58 322.946 182.95C322.626 183.31 322.191 183.595 321.641 183.805C321.101 184.005 320.481 184.105 319.781 184.105ZM330.49 184V182.32L330.415 182.005V179.14C330.415 178.53 330.235 178.06 329.875 177.73C329.525 177.39 328.995 177.22 328.285 177.22C327.815 177.22 327.355 177.3 326.905 177.46C326.455 177.61 326.075 177.815 325.765 178.075L325.165 176.995C325.575 176.665 326.065 176.415 326.635 176.245C327.215 176.065 327.82 175.975 328.45 175.975C329.54 175.975 330.38 176.24 330.97 176.77C331.56 177.3 331.855 178.11 331.855 179.2V184H330.49ZM327.88 184.09C327.29 184.09 326.77 183.99 326.32 183.79C325.88 183.59 325.54 183.315 325.3 182.965C325.06 182.605 324.94 182.2 324.94 181.75C324.94 181.32 325.04 180.93 325.24 180.58C325.45 180.23 325.785 179.95 326.245 179.74C326.715 179.53 327.345 179.425 328.135 179.425H330.655V180.46H328.195C327.475 180.46 326.99 180.58 326.74 180.82C326.49 181.06 326.365 181.35 326.365 181.69C326.365 182.08 326.52 182.395 326.83 182.635C327.14 182.865 327.57 182.98 328.12 182.98C328.66 182.98 329.13 182.86 329.53 182.62C329.94 182.38 330.235 182.03 330.415 181.57L330.7 182.56C330.51 183.03 330.175 183.405 329.695 183.685C329.215 183.955 328.61 184.09 327.88 184.09ZM339.878 183.325V177.31H336.428L336.353 178.84C336.333 179.34 336.298 179.825 336.248 180.295C336.208 180.755 336.138 181.18 336.038 181.57C335.948 181.96 335.813 182.28 335.633 182.53C335.453 182.78 335.213 182.935 334.913 182.995L333.488 182.74C333.798 182.75 334.048 182.65 334.238 182.44C334.428 182.22 334.573 181.92 334.673 181.54C334.783 181.16 334.863 180.73 334.913 180.25C334.963 179.76 335.003 179.255 335.033 178.735L335.153 176.05H341.318V183.325H339.878ZM333.173 185.845V182.74H342.533V185.845H341.183V184H334.538V185.845H333.173ZM349.284 184V182.32L349.209 182.005V179.14C349.209 178.53 349.029 178.06 348.669 177.73C348.319 177.39 347.789 177.22 347.079 177.22C346.609 177.22 346.149 177.3 345.699 177.46C345.249 177.61 344.869 177.815 344.559 178.075L343.959 176.995C344.369 176.665 344.859 176.415 345.429 176.245C346.009 176.065 346.614 175.975 347.244 175.975C348.334 175.975 349.174 176.24 349.764 176.77C350.354 177.3 350.649 178.11 350.649 179.2V184H349.284ZM346.674 184.09C346.084 184.09 345.564 183.99 345.114 183.79C344.674 183.59 344.334 183.315 344.094 182.965C343.854 182.605 343.734 182.2 343.734 181.75C343.734 181.32 343.834 180.93 344.034 180.58C344.244 180.23 344.579 179.95 345.039 179.74C345.509 179.53 346.139 179.425 346.929 179.425H349.449V180.46H346.989C346.269 180.46 345.784 180.58 345.534 180.82C345.284 181.06 345.159 181.35 345.159 181.69C345.159 182.08 345.314 182.395 345.624 182.635C345.934 182.865 346.364 182.98 346.914 182.98C347.454 182.98 347.924 182.86 348.324 182.62C348.734 182.38 349.029 182.03 349.209 181.57L349.494 182.56C349.304 183.03 348.969 183.405 348.489 183.685C348.009 183.955 347.404 184.09 346.674 184.09ZM353.242 184V176.05H354.682V179.425H359.212V176.05H360.652V184H359.212V180.67H354.682V184H353.242ZM363.452 184V176.05H364.892V181.84L369.767 176.05H371.072V184H369.632V178.21L364.772 184H363.452ZM373.867 184V176.05H375.307V181.84L380.182 176.05H381.487V184H380.047V178.21L375.187 184H373.867ZM377.587 175.015C376.857 175.015 376.282 174.84 375.862 174.49C375.452 174.13 375.242 173.615 375.232 172.945H376.207C376.217 173.325 376.342 173.625 376.582 173.845C376.832 174.065 377.162 174.175 377.572 174.175C377.982 174.175 378.312 174.065 378.562 173.845C378.812 173.625 378.942 173.325 378.952 172.945H379.957C379.947 173.615 379.732 174.13 379.312 174.49C378.892 174.84 378.317 175.015 377.587 175.015ZM384.597 178.03C384.317 178.03 384.077 177.935 383.877 177.745C383.677 177.545 383.577 177.295 383.577 176.995C383.577 176.695 383.677 176.45 383.877 176.26C384.077 176.07 384.317 175.975 384.597 175.975C384.867 175.975 385.097 176.07 385.287 176.26C385.487 176.45 385.587 176.695 385.587 176.995C385.587 177.295 385.487 177.545 385.287 177.745C385.097 177.935 384.867 178.03 384.597 178.03ZM384.597 184.09C384.317 184.09 384.077 183.995 383.877 183.805C383.677 183.605 383.577 183.355 383.577 183.055C383.577 182.755 383.677 182.51 383.877 182.32C384.077 182.13 384.317 182.035 384.597 182.035C384.867 182.035 385.097 182.13 385.287 182.32C385.487 182.51 385.587 182.755 385.587 183.055C385.587 183.355 385.487 183.605 385.287 183.805C385.097 183.995 384.867 184.09 384.597 184.09ZM394.243 184.12C393.503 184.12 392.783 184.005 392.083 183.775C391.393 183.545 390.828 183.235 390.388 182.845L391.078 181.66C391.428 181.99 391.883 182.26 392.443 182.47C393.003 182.68 393.603 182.785 394.243 182.785C395.023 182.785 395.628 182.62 396.058 182.29C396.498 181.95 396.718 181.495 396.718 180.925C396.718 180.375 396.508 179.935 396.088 179.605C395.678 179.265 395.023 179.095 394.123 179.095H393.283V178.045L396.403 174.205L396.613 174.805H390.868V173.5H397.798V174.52L394.693 178.345L393.913 177.88H394.408C395.678 177.88 396.628 178.165 397.258 178.735C397.898 179.305 398.218 180.03 398.218 180.91C398.218 181.5 398.073 182.04 397.783 182.53C397.493 183.02 397.053 183.41 396.463 183.7C395.883 183.98 395.143 184.12 394.243 184.12ZM403.907 184.12C403.087 184.12 402.352 183.91 401.702 183.49C401.062 183.07 400.552 182.46 400.172 181.66C399.802 180.86 399.617 179.89 399.617 178.75C399.617 177.61 399.802 176.64 400.172 175.84C400.552 175.04 401.062 174.43 401.702 174.01C402.352 173.59 403.087 173.38 403.907 173.38C404.717 173.38 405.447 173.59 406.097 174.01C406.747 174.43 407.257 175.04 407.627 175.84C407.997 176.64 408.182 177.61 408.182 178.75C408.182 179.89 407.997 180.86 407.627 181.66C407.257 182.46 406.747 183.07 406.097 183.49C405.447 183.91 404.717 184.12 403.907 184.12ZM403.907 182.785C404.457 182.785 404.937 182.635 405.347 182.335C405.767 182.035 406.092 181.585 406.322 180.985C406.562 180.385 406.682 179.64 406.682 178.75C406.682 177.86 406.562 177.115 406.322 176.515C406.092 175.915 405.767 175.465 405.347 175.165C404.937 174.865 404.457 174.715 403.907 174.715C403.357 174.715 402.872 174.865 402.452 175.165C402.032 175.465 401.702 175.915 401.462 176.515C401.232 177.115 401.117 177.86 401.117 178.75C401.117 179.64 401.232 180.385 401.462 180.985C401.702 181.585 402.032 182.035 402.452 182.335C402.872 182.635 403.357 182.785 403.907 182.785Z" fill="black"/>
<path d="M34.575 111L39.475 86.5H43.185L50.36 104.455L48.4 104.42L62.365 86.5H66.285L61.385 111H57.08L60.615 93.15L61.63 93.185L49.8 108.2H47.77L41.575 93.15L42.45 93.255L38.915 111H34.575ZM76.2912 111.245C74.7745 111.245 73.3862 110.918 72.1262 110.265C70.8895 109.612 69.8978 108.678 69.1512 107.465C68.4278 106.228 68.0662 104.747 68.0662 103.02C68.0662 101.433 68.3228 99.975 68.8362 98.645C69.3728 97.315 70.1195 96.16 71.0762 95.18C72.0328 94.2 73.1412 93.4417 74.4012 92.905C75.6845 92.3683 77.0845 92.1 78.6012 92.1C80.1645 92.1 81.5062 92.38 82.6262 92.94C83.7695 93.5 84.6328 94.3517 85.2162 95.495C85.7995 96.615 86.0678 98.015 86.0212 99.695C85.9745 102.005 85.5545 104.035 84.7612 105.785C83.9678 107.512 82.8595 108.853 81.4362 109.81C80.0128 110.767 78.2978 111.245 76.2912 111.245ZM77.4112 107.5C78.6712 107.5 79.7795 107.208 80.7362 106.625C81.6928 106.018 82.4512 105.19 83.0112 104.14C83.5712 103.09 83.8512 101.877 83.8512 100.5C83.8512 99.0533 83.4195 97.91 82.5562 97.07C81.6928 96.23 80.4795 95.81 78.9162 95.81C77.6795 95.81 76.5712 96.1133 75.5912 96.72C74.6345 97.3033 73.8762 98.12 73.3162 99.17C72.7562 100.22 72.4762 101.433 72.4762 102.81C72.4762 104.257 72.9078 105.4 73.7712 106.24C74.6345 107.08 75.8478 107.5 77.4112 107.5ZM81.9962 111L82.8362 106.73L84.0262 101.76L84.6212 96.755L85.4962 92.31H89.8712L86.1612 111H81.9962ZM95.9379 111L99.0879 94.97L99.8929 96.02H92.3679L93.1029 92.31H110.638L109.868 96.02H102.238L103.463 94.97L100.313 111H95.9379ZM118.731 111.245C116.864 111.245 115.243 110.907 113.866 110.23C112.489 109.53 111.416 108.573 110.646 107.36C109.899 106.123 109.526 104.677 109.526 103.02C109.526 100.897 109.993 99.0183 110.926 97.385C111.859 95.7517 113.131 94.4683 114.741 93.535C116.374 92.5783 118.229 92.1 120.306 92.1C122.056 92.1 123.573 92.4267 124.856 93.08C126.139 93.7333 127.131 94.6783 127.831 95.915C128.554 97.1283 128.916 98.5867 128.916 100.29C128.916 100.733 128.893 101.188 128.846 101.655C128.799 102.122 128.729 102.553 128.636 102.95H112.781L113.271 100.045H126.571L124.786 101.025C124.973 99.835 124.891 98.8433 124.541 98.05C124.191 97.2567 123.631 96.65 122.861 96.23C122.091 95.81 121.169 95.6 120.096 95.6C118.813 95.6 117.693 95.9033 116.736 96.51C115.803 97.0933 115.079 97.9333 114.566 99.03C114.053 100.103 113.796 101.363 113.796 102.81C113.796 104.327 114.228 105.493 115.091 106.31C115.978 107.127 117.343 107.535 119.186 107.535C120.236 107.535 121.239 107.372 122.196 107.045C123.153 106.695 123.946 106.217 124.576 105.61L126.396 108.655C125.416 109.518 124.249 110.172 122.896 110.615C121.566 111.035 120.178 111.245 118.731 111.245ZM131.155 111L134.9 92.31H139.415L144.28 105.575H142.46L153.03 92.31H157.16L153.485 111H149.495L152.26 97L152.925 97.455L143.685 109.04H141.795L137.14 97.14L137.91 96.93L135.11 111H131.155ZM167.859 111.245C166.342 111.245 164.954 110.918 163.694 110.265C162.457 109.612 161.465 108.678 160.719 107.465C159.995 106.228 159.634 104.747 159.634 103.02C159.634 101.433 159.89 99.975 160.404 98.645C160.94 97.315 161.687 96.16 162.644 95.18C163.6 94.2 164.709 93.4417 165.969 92.905C167.252 92.3683 168.652 92.1 170.169 92.1C171.732 92.1 173.074 92.38 174.194 92.94C175.337 93.5 176.2 94.3517 176.784 95.495C177.367 96.615 177.635 98.015 177.589 99.695C177.542 102.005 177.122 104.035 176.329 105.785C175.535 107.512 174.427 108.853 173.004 109.81C171.58 110.767 169.865 111.245 167.859 111.245ZM168.979 107.5C170.239 107.5 171.347 107.208 172.304 106.625C173.26 106.018 174.019 105.19 174.579 104.14C175.139 103.09 175.419 101.877 175.419 100.5C175.419 99.0533 174.987 97.91 174.124 97.07C173.26 96.23 172.047 95.81 170.484 95.81C169.247 95.81 168.139 96.1133 167.159 96.72C166.202 97.3033 165.444 98.12 164.884 99.17C164.324 100.22 164.044 101.433 164.044 102.81C164.044 104.257 164.475 105.4 165.339 106.24C166.202 107.08 167.415 107.5 168.979 107.5ZM173.564 111L174.404 106.73L175.594 101.76L176.189 96.755L177.064 92.31H181.439L177.729 111H173.564ZM187.505 111L190.655 94.97L191.46 96.02H183.935L184.67 92.31H202.205L201.435 96.02H193.805L195.03 94.97L191.88 111H187.505ZM201.634 111L205.379 92.31H209.789L207.234 104.98L219.939 92.31H224.104L220.359 111H215.914L218.539 98.295L205.834 111H201.634ZM239.682 111L234.922 101.97L238.562 100.29L244.757 111H239.682ZM226.277 111L230.022 92.31H234.397L230.652 111H226.277ZM230.897 103.51L231.562 99.87H237.897L237.232 103.51H230.897ZM238.702 102.18L234.572 101.655L243.357 92.31H248.152L238.702 102.18ZM255.735 111.245C254.218 111.245 252.83 110.918 251.57 110.265C250.333 109.612 249.341 108.678 248.595 107.465C247.871 106.228 247.51 104.747 247.51 103.02C247.51 101.433 247.766 99.975 248.28 98.645C248.816 97.315 249.563 96.16 250.52 95.18C251.476 94.2 252.585 93.4417 253.845 92.905C255.128 92.3683 256.528 92.1 258.045 92.1C259.608 92.1 260.95 92.38 262.07 92.94C263.213 93.5 264.076 94.3517 264.66 95.495C265.243 96.615 265.511 98.015 265.465 99.695C265.418 102.005 264.998 104.035 264.205 105.785C263.411 107.512 262.303 108.853 260.88 109.81C259.456 110.767 257.741 111.245 255.735 111.245ZM256.855 107.5C258.115 107.5 259.223 107.208 260.18 106.625C261.136 106.018 261.895 105.19 262.455 104.14C263.015 103.09 263.295 101.877 263.295 100.5C263.295 99.0533 262.863 97.91 262 97.07C261.136 96.23 259.923 95.81 258.36 95.81C257.123 95.81 256.015 96.1133 255.035 96.72C254.078 97.3033 253.32 98.12 252.76 99.17C252.2 100.22 251.92 101.433 251.92 102.81C251.92 104.257 252.351 105.4 253.215 106.24C254.078 107.08 255.291 107.5 256.855 107.5ZM261.44 111L262.28 106.73L263.47 101.76L264.065 96.755L264.94 92.31H269.315L265.605 111H261.44Z" fill="black"/>
</svg>
