<svg width="437" height="207" viewBox="0 0 437 207" fill="none" xmlns="http://www.w3.org/2000/svg">
<rect width="437" height="207" rx="24" fill="#F4CF71"/>
<path d="M22.635 34V23.5H26.73C27.65 23.5 28.435 23.645 29.085 23.935C29.735 24.225 30.235 24.645 30.585 25.195C30.935 25.745 31.11 26.4 31.11 27.16C31.11 27.92 30.935 28.575 30.585 29.125C30.235 29.665 29.735 30.085 29.085 30.385C28.435 30.675 27.65 30.82 26.73 30.82H23.46L24.135 30.115V34H22.635ZM24.135 30.265L23.46 29.515H26.685C27.645 29.515 28.37 29.31 28.86 28.9C29.36 28.49 29.61 27.91 29.61 27.16C29.61 26.41 29.36 25.83 28.86 25.42C28.37 25.01 27.645 24.805 26.685 24.805H23.46L24.135 24.055V30.265ZM33.4055 37C33.0255 37 32.6555 36.935 32.2955 36.805C31.9355 36.685 31.6255 36.505 31.3655 36.265L31.9805 35.185C32.1805 35.375 32.4005 35.52 32.6405 35.62C32.8805 35.72 33.1355 35.77 33.4055 35.77C33.7555 35.77 34.0455 35.68 34.2755 35.5C34.5055 35.32 34.7205 35 34.9205 34.54L35.4155 33.445L35.5655 33.265L38.6855 26.05H40.0955L36.2405 34.795C36.0105 35.355 35.7505 35.795 35.4605 36.115C35.1805 36.435 34.8705 36.66 34.5305 36.79C34.1905 36.93 33.8155 37 33.4055 37ZM35.2955 34.255L31.6655 26.05H33.1655L36.2555 33.13L35.2955 34.255ZM44.8151 34.09C44.0051 34.09 43.2801 33.915 42.6401 33.565C42.0101 33.215 41.5151 32.735 41.1551 32.125C40.7951 31.515 40.6151 30.815 40.6151 30.025C40.6151 29.235 40.7951 28.535 41.1551 27.925C41.5151 27.315 42.0101 26.84 42.6401 26.5C43.2801 26.15 44.0051 25.975 44.8151 25.975C45.5351 25.975 46.1751 26.12 46.7351 26.41C47.3051 26.69 47.7451 27.11 48.0551 27.67L46.9601 28.375C46.7001 27.985 46.3801 27.7 46.0001 27.52C45.6301 27.33 45.2301 27.235 44.8001 27.235C44.2801 27.235 43.8151 27.35 43.4051 27.58C42.9951 27.81 42.6701 28.135 42.4301 28.555C42.1901 28.965 42.0701 29.455 42.0701 30.025C42.0701 30.595 42.1901 31.09 42.4301 31.51C42.6701 31.93 42.9951 32.255 43.4051 32.485C43.8151 32.715 44.2801 32.83 44.8001 32.83C45.2301 32.83 45.6301 32.74 46.0001 32.56C46.3801 32.37 46.7001 32.08 46.9601 31.69L48.0551 32.38C47.7451 32.93 47.3051 33.355 46.7351 33.655C46.1751 33.945 45.5351 34.09 44.8151 34.09ZM53.2672 34.09C52.4572 34.09 51.7322 33.915 51.0922 33.565C50.4622 33.215 49.9672 32.735 49.6072 32.125C49.2472 31.515 49.0672 30.815 49.0672 30.025C49.0672 29.235 49.2472 28.535 49.6072 27.925C49.9672 27.315 50.4622 26.84 51.0922 26.5C51.7322 26.15 52.4572 25.975 53.2672 25.975C53.9872 25.975 54.6272 26.12 55.1872 26.41C55.7572 26.69 56.1972 27.11 56.5072 27.67L55.4122 28.375C55.1522 27.985 54.8322 27.7 54.4522 27.52C54.0822 27.33 53.6822 27.235 53.2522 27.235C52.7322 27.235 52.2672 27.35 51.8572 27.58C51.4472 27.81 51.1222 28.135 50.8822 28.555C50.6422 28.965 50.5222 29.455 50.5222 30.025C50.5222 30.595 50.6422 31.09 50.8822 31.51C51.1222 31.93 51.4472 32.255 51.8572 32.485C52.2672 32.715 52.7322 32.83 53.2522 32.83C53.6822 32.83 54.0822 32.74 54.4522 32.56C54.8322 32.37 55.1522 32.08 55.4122 31.69L56.5072 32.38C56.1972 32.93 55.7572 33.355 55.1872 33.655C54.6272 33.945 53.9872 34.09 53.2672 34.09ZM64.1316 34L61.0566 30.13L62.2416 29.41L65.8266 34H64.1316ZM58.3716 34V26.05H59.8116V34H58.3716ZM59.3766 30.64V29.41H62.0016V30.64H59.3766ZM62.3616 30.19L61.0266 30.01L64.0716 26.05H65.6166L62.3616 30.19ZM67.3364 34V26.05H68.7764V31.84L73.6514 26.05H74.9564V34H73.5164V28.21L68.6564 34H67.3364ZM77.7514 34V26.05H79.1914V31.84L84.0664 26.05H85.3714V34H83.9314V28.21L79.0714 34H77.7514ZM81.4714 25.015C80.7414 25.015 80.1664 24.84 79.7464 24.49C79.3364 24.13 79.1264 23.615 79.1164 22.945H80.0914C80.1014 23.325 80.2264 23.625 80.4664 23.845C80.7164 24.065 81.0464 24.175 81.4564 24.175C81.8664 24.175 82.1964 24.065 82.4464 23.845C82.6964 23.625 82.8264 23.325 82.8364 22.945H83.8414C83.8314 23.615 83.6164 24.13 83.1964 24.49C82.7764 24.84 82.2014 25.015 81.4714 25.015Z" fill="black"/>
<path d="M22.635 184V173.5H27.15C28.29 173.5 29.185 173.73 29.835 174.19C30.485 174.65 30.81 175.32 30.81 176.2C30.81 177.06 30.5 177.72 29.88 178.18C29.26 178.63 28.445 178.855 27.435 178.855L27.705 178.405C28.875 178.405 29.77 178.64 30.39 179.11C31.02 179.57 31.335 180.245 31.335 181.135C31.335 182.035 31.005 182.74 30.345 183.25C29.695 183.75 28.725 184 27.435 184H22.635ZM24.12 182.815H27.405C28.205 182.815 28.805 182.67 29.205 182.38C29.615 182.08 29.82 181.625 29.82 181.015C29.82 180.405 29.615 179.96 29.205 179.68C28.805 179.4 28.205 179.26 27.405 179.26H24.12V182.815ZM24.12 178.12H27.045C27.775 178.12 28.33 177.975 28.71 177.685C29.1 177.395 29.295 176.97 29.295 176.41C29.295 175.84 29.1 175.41 28.71 175.12C28.33 174.83 27.775 174.685 27.045 174.685H24.12V178.12ZM37.8161 184.09C37.1561 184.09 36.5511 183.94 36.0011 183.64C35.4611 183.33 35.0261 182.875 34.6961 182.275C34.3761 181.675 34.2161 180.925 34.2161 180.025C34.2161 179.125 34.3711 178.375 34.6811 177.775C35.0011 177.175 35.4311 176.725 35.9711 176.425C36.5211 176.125 37.1361 175.975 37.8161 175.975C38.5961 175.975 39.2861 176.145 39.8861 176.485C40.4861 176.825 40.9611 177.3 41.3111 177.91C41.6611 178.51 41.8361 179.215 41.8361 180.025C41.8361 180.835 41.6611 181.545 41.3111 182.155C40.9611 182.765 40.4861 183.24 39.8861 183.58C39.2861 183.92 38.5961 184.09 37.8161 184.09ZM33.6011 186.91V176.05H34.9811V178.195L34.8911 180.04L35.0411 181.885V186.91H33.6011ZM37.6961 182.83C38.2061 182.83 38.6611 182.715 39.0611 182.485C39.4711 182.255 39.7911 181.93 40.0211 181.51C40.2611 181.08 40.3811 180.585 40.3811 180.025C40.3811 179.455 40.2611 178.965 40.0211 178.555C39.7911 178.135 39.4711 177.81 39.0611 177.58C38.6611 177.35 38.2061 177.235 37.6961 177.235C37.1961 177.235 36.7411 177.35 36.3311 177.58C35.9311 177.81 35.6111 178.135 35.3711 178.555C35.1411 178.965 35.0261 179.455 35.0261 180.025C35.0261 180.585 35.1411 181.08 35.3711 181.51C35.6111 181.93 35.9311 182.255 36.3311 182.485C36.7411 182.715 37.1961 182.83 37.6961 182.83ZM47.4682 184.09C46.6182 184.09 45.8682 183.915 45.2182 183.565C44.5782 183.215 44.0782 182.735 43.7182 182.125C43.3682 181.515 43.1932 180.815 43.1932 180.025C43.1932 179.235 43.3632 178.535 43.7032 177.925C44.0532 177.315 44.5282 176.84 45.1282 176.5C45.7382 176.15 46.4232 175.975 47.1832 175.975C47.9532 175.975 48.6332 176.145 49.2232 176.485C49.8132 176.825 50.2732 177.305 50.6032 177.925C50.9432 178.535 51.1132 179.25 51.1132 180.07C51.1132 180.13 51.1082 180.2 51.0982 180.28C51.0982 180.36 51.0932 180.435 51.0832 180.505H44.3182V179.47H50.3332L49.7482 179.83C49.7582 179.32 49.6532 178.865 49.4332 178.465C49.2132 178.065 48.9082 177.755 48.5182 177.535C48.1382 177.305 47.6932 177.19 47.1832 177.19C46.6832 177.19 46.2382 177.305 45.8482 177.535C45.4582 177.755 45.1532 178.07 44.9332 178.48C44.7132 178.88 44.6032 179.34 44.6032 179.86V180.1C44.6032 180.63 44.7232 181.105 44.9632 181.525C45.2132 181.935 45.5582 182.255 45.9982 182.485C46.4382 182.715 46.9432 182.83 47.5132 182.83C47.9832 182.83 48.4082 182.75 48.7882 182.59C49.1782 182.43 49.5182 182.19 49.8082 181.87L50.6032 182.8C50.2432 183.22 49.7932 183.54 49.2532 183.76C48.7232 183.98 48.1282 184.09 47.4682 184.09ZM53.3471 184V176.05H54.8321L58.2521 181.93H57.6521L61.1621 176.05H62.5121V184H61.2071V177.67L61.4471 177.805L58.2371 183.1H57.6071L54.3821 177.7L54.6671 177.64V184H53.3471ZM70.3999 184V181.21L70.6249 181.48H68.0899C67.0299 181.48 66.1999 181.255 65.5999 180.805C65.0099 180.355 64.7149 179.7 64.7149 178.84C64.7149 177.92 65.0299 177.225 65.6599 176.755C66.2999 176.285 67.1499 176.05 68.2099 176.05H71.6899V184H70.3999ZM64.6399 184L66.7999 180.955H68.2849L66.1849 184H64.6399ZM70.3999 180.76V176.905L70.6249 177.31H68.2549C67.5949 177.31 67.0849 177.435 66.7249 177.685C66.3649 177.925 66.1849 178.325 66.1849 178.885C66.1849 179.925 66.8549 180.445 68.1949 180.445H70.6249L70.3999 180.76ZM74.8145 178.03C74.5345 178.03 74.2945 177.935 74.0945 177.745C73.8945 177.545 73.7945 177.295 73.7945 176.995C73.7945 176.695 73.8945 176.45 74.0945 176.26C74.2945 176.07 74.5345 175.975 74.8145 175.975C75.0845 175.975 75.3145 176.07 75.5045 176.26C75.7045 176.45 75.8045 176.695 75.8045 176.995C75.8045 177.295 75.7045 177.545 75.5045 177.745C75.3145 177.935 75.0845 178.03 74.8145 178.03ZM74.8145 184.09C74.5345 184.09 74.2945 183.995 74.0945 183.805C73.8945 183.605 73.7945 183.355 73.7945 183.055C73.7945 182.755 73.8945 182.51 74.0945 182.32C74.2945 182.13 74.5345 182.035 74.8145 182.035C75.0845 182.035 75.3145 182.13 75.5045 182.32C75.7045 182.51 75.8045 182.755 75.8045 183.055C75.8045 183.355 75.7045 183.605 75.5045 183.805C75.3145 183.995 75.0845 184.09 74.8145 184.09ZM85.3463 184.12C84.4963 184.12 83.7613 183.995 83.1413 183.745C82.5213 183.495 82.0413 183.14 81.7013 182.68C81.3613 182.21 81.1913 181.66 81.1913 181.03C81.1913 180.41 81.3513 179.885 81.6713 179.455C82.0013 179.015 82.4763 178.685 83.0963 178.465C83.7163 178.235 84.4663 178.12 85.3463 178.12C86.2263 178.12 86.9763 178.235 87.5963 178.465C88.2263 178.685 88.7063 179.015 89.0363 179.455C89.3663 179.895 89.5313 180.42 89.5313 181.03C89.5313 181.66 89.3613 182.21 89.0213 182.68C88.6813 183.14 88.1963 183.495 87.5663 183.745C86.9363 183.995 86.1963 184.12 85.3463 184.12ZM85.3463 182.905C86.1863 182.905 86.8413 182.735 87.3113 182.395C87.7913 182.045 88.0312 181.575 88.0312 180.985C88.0312 180.405 87.7913 179.95 87.3113 179.62C86.8413 179.28 86.1863 179.11 85.3463 179.11C84.5163 179.11 83.8663 179.28 83.3963 179.62C82.9263 179.95 82.6913 180.405 82.6913 180.985C82.6913 181.575 82.9263 182.045 83.3963 182.395C83.8663 182.735 84.5163 182.905 85.3463 182.905ZM85.3463 178.93C84.5463 178.93 83.8663 178.825 83.3063 178.615C82.7463 178.395 82.3163 178.085 82.0163 177.685C81.7163 177.275 81.5663 176.79 81.5663 176.23C81.5663 175.64 81.7213 175.135 82.0313 174.715C82.3513 174.285 82.7963 173.955 83.3663 173.725C83.9363 173.495 84.5963 173.38 85.3463 173.38C86.1063 173.38 86.7713 173.495 87.3413 173.725C87.9113 173.955 88.3563 174.285 88.6763 174.715C88.9963 175.135 89.1563 175.64 89.1563 176.23C89.1563 176.79 89.0063 177.275 88.7063 177.685C88.4063 178.085 87.9713 178.395 87.4013 178.615C86.8313 178.825 86.1463 178.93 85.3463 178.93ZM85.3463 177.97C86.0763 177.97 86.6463 177.82 87.0563 177.52C87.4763 177.22 87.6863 176.81 87.6863 176.29C87.6863 175.76 87.4713 175.345 87.0413 175.045C86.6113 174.745 86.0463 174.595 85.3463 174.595C84.6463 174.595 84.0863 174.745 83.6663 175.045C83.2563 175.345 83.0513 175.76 83.0513 176.29C83.0513 176.81 83.2513 177.22 83.6513 177.52C84.0613 177.82 84.6263 177.97 85.3463 177.97ZM95.1946 184.12C94.3746 184.12 93.6396 183.91 92.9896 183.49C92.3496 183.07 91.8396 182.46 91.4596 181.66C91.0896 180.86 90.9046 179.89 90.9046 178.75C90.9046 177.61 91.0896 176.64 91.4596 175.84C91.8396 175.04 92.3496 174.43 92.9896 174.01C93.6396 173.59 94.3746 173.38 95.1946 173.38C96.0046 173.38 96.7346 173.59 97.3846 174.01C98.0346 174.43 98.5446 175.04 98.9146 175.84C99.2846 176.64 99.4696 177.61 99.4696 178.75C99.4696 179.89 99.2846 180.86 98.9146 181.66C98.5446 182.46 98.0346 183.07 97.3846 183.49C96.7346 183.91 96.0046 184.12 95.1946 184.12ZM95.1946 182.785C95.7446 182.785 96.2246 182.635 96.6346 182.335C97.0546 182.035 97.3796 181.585 97.6096 180.985C97.8496 180.385 97.9696 179.64 97.9696 178.75C97.9696 177.86 97.8496 177.115 97.6096 176.515C97.3796 175.915 97.0546 175.465 96.6346 175.165C96.2246 174.865 95.7446 174.715 95.1946 174.715C94.6446 174.715 94.1596 174.865 93.7396 175.165C93.3196 175.465 92.9896 175.915 92.7496 176.515C92.5196 177.115 92.4046 177.86 92.4046 178.75C92.4046 179.64 92.5196 180.385 92.7496 180.985C92.9896 181.585 93.3196 182.035 93.7396 182.335C94.1596 182.635 94.6446 182.785 95.1946 182.785ZM101.584 184V176.05H103.069L106.489 181.93H105.889L109.399 176.05H110.749V184H109.444V177.67L109.684 177.805L106.474 183.1H105.844L102.619 177.7L102.904 177.64V184H101.584ZM113.552 184V176.05H114.992V181.84L119.867 176.05H121.172V184H119.732V178.21L114.872 184H113.552ZM123.967 184V176.05H125.407V179.425H129.937V176.05H131.377V184H129.937V180.67H125.407V184H123.967Z" fill="black"/>
<path d="M227.7 184L223.89 178.825L225.105 178.075L229.41 184H227.7ZM220.635 184V173.5H222.105V184H220.635ZM221.655 179.38V178.06H225.06V179.38H221.655ZM225.24 178.915L223.86 178.705L227.625 173.5H229.23L225.24 178.915ZM234.01 184.09C233.21 184.09 232.5 183.915 231.88 183.565C231.26 183.215 230.77 182.735 230.41 182.125C230.05 181.505 229.87 180.805 229.87 180.025C229.87 179.235 230.05 178.535 230.41 177.925C230.77 177.315 231.26 176.84 231.88 176.5C232.5 176.15 233.21 175.975 234.01 175.975C234.8 175.975 235.505 176.15 236.125 176.5C236.755 176.84 237.245 177.315 237.595 177.925C237.955 178.525 238.135 179.225 238.135 180.025C238.135 180.815 237.955 181.515 237.595 182.125C237.245 182.735 236.755 183.215 236.125 183.565C235.505 183.915 234.8 184.09 234.01 184.09ZM234.01 182.83C234.52 182.83 234.975 182.715 235.375 182.485C235.785 182.255 236.105 181.93 236.335 181.51C236.565 181.08 236.68 180.585 236.68 180.025C236.68 179.455 236.565 178.965 236.335 178.555C236.105 178.135 235.785 177.81 235.375 177.58C234.975 177.35 234.52 177.235 234.01 177.235C233.5 177.235 233.045 177.35 232.645 177.58C232.245 177.81 231.925 178.135 231.685 178.555C231.445 178.965 231.325 179.455 231.325 180.025C231.325 180.585 231.445 181.08 231.685 181.51C231.925 181.93 232.245 182.255 232.645 182.485C233.045 182.715 233.5 182.83 234.01 182.83ZM238.836 183.985L238.926 182.77C238.996 182.78 239.061 182.79 239.121 182.8C239.181 182.81 239.236 182.815 239.286 182.815C239.606 182.815 239.856 182.705 240.036 182.485C240.226 182.265 240.366 181.975 240.456 181.615C240.546 181.245 240.611 180.83 240.651 180.37C240.691 179.91 240.721 179.45 240.741 178.99L240.876 176.05H246.981V184H245.541V176.89L245.886 177.31H241.806L242.136 176.875L242.031 179.08C242.001 179.78 241.946 180.435 241.866 181.045C241.786 181.655 241.661 182.19 241.491 182.65C241.331 183.11 241.106 183.47 240.816 183.73C240.536 183.99 240.171 184.12 239.721 184.12C239.591 184.12 239.451 184.105 239.301 184.075C239.161 184.055 239.006 184.025 238.836 183.985ZM249.765 184V176.05H251.205V181.84L256.08 176.05H257.385V184H255.945V178.21L251.085 184H249.765ZM265.19 180.745C264.77 180.945 264.335 181.105 263.885 181.225C263.445 181.335 262.99 181.39 262.52 181.39C261.56 181.39 260.8 181.165 260.24 180.715C259.69 180.265 259.415 179.57 259.415 178.63V176.05H260.855V178.54C260.855 179.11 261.03 179.53 261.38 179.8C261.74 180.07 262.22 180.205 262.82 180.205C263.2 180.205 263.59 180.155 263.99 180.055C264.4 179.955 264.8 179.815 265.19 179.635V180.745ZM265.085 184V176.05H266.525V184H265.085ZM272.861 184.09C272.011 184.09 271.261 183.915 270.611 183.565C269.971 183.215 269.471 182.735 269.111 182.125C268.761 181.515 268.586 180.815 268.586 180.025C268.586 179.235 268.756 178.535 269.096 177.925C269.446 177.315 269.921 176.84 270.521 176.5C271.131 176.15 271.816 175.975 272.576 175.975C273.346 175.975 274.026 176.145 274.616 176.485C275.206 176.825 275.666 177.305 275.996 177.925C276.336 178.535 276.506 179.25 276.506 180.07C276.506 180.13 276.501 180.2 276.491 180.28C276.491 180.36 276.486 180.435 276.476 180.505H269.711V179.47H275.726L275.141 179.83C275.151 179.32 275.046 178.865 274.826 178.465C274.606 178.065 274.301 177.755 273.911 177.535C273.531 177.305 273.086 177.19 272.576 177.19C272.076 177.19 271.631 177.305 271.241 177.535C270.851 177.755 270.546 178.07 270.326 178.48C270.106 178.88 269.996 179.34 269.996 179.86V180.1C269.996 180.63 270.116 181.105 270.356 181.525C270.606 181.935 270.951 182.255 271.391 182.485C271.831 182.715 272.336 182.83 272.906 182.83C273.376 182.83 273.801 182.75 274.181 182.59C274.571 182.43 274.911 182.19 275.201 181.87L275.996 182.8C275.636 183.22 275.186 183.54 274.646 183.76C274.116 183.98 273.521 184.09 272.861 184.09ZM282.205 184.09C281.395 184.09 280.67 183.915 280.03 183.565C279.4 183.215 278.905 182.735 278.545 182.125C278.185 181.515 278.005 180.815 278.005 180.025C278.005 179.235 278.185 178.535 278.545 177.925C278.905 177.315 279.4 176.84 280.03 176.5C280.67 176.15 281.395 175.975 282.205 175.975C282.925 175.975 283.565 176.12 284.125 176.41C284.695 176.69 285.135 177.11 285.445 177.67L284.35 178.375C284.09 177.985 283.77 177.7 283.39 177.52C283.02 177.33 282.62 177.235 282.19 177.235C281.67 177.235 281.205 177.35 280.795 177.58C280.385 177.81 280.06 178.135 279.82 178.555C279.58 178.965 279.46 179.455 279.46 180.025C279.46 180.595 279.58 181.09 279.82 181.51C280.06 181.93 280.385 182.255 280.795 182.485C281.205 182.715 281.67 182.83 282.19 182.83C282.62 182.83 283.02 182.74 283.39 182.56C283.77 182.37 284.09 182.08 284.35 181.69L285.445 182.38C285.135 182.93 284.695 183.355 284.125 183.655C283.565 183.945 282.925 184.09 282.205 184.09ZM288.782 184V176.935L289.142 177.31H285.872V176.05H293.132V177.31H289.877L290.222 176.935V184H288.782ZM294.604 184V176.05H298.294C299.224 176.05 299.954 176.23 300.484 176.59C301.024 176.94 301.294 177.44 301.294 178.09C301.294 178.74 301.039 179.245 300.529 179.605C300.029 179.955 299.364 180.13 298.534 180.13L298.759 179.74C299.709 179.74 300.414 179.915 300.874 180.265C301.334 180.615 301.564 181.13 301.564 181.81C301.564 182.5 301.304 183.04 300.784 183.43C300.274 183.81 299.489 184 298.429 184H294.604ZM296.014 182.89H298.324C298.924 182.89 299.374 182.8 299.674 182.62C299.974 182.43 300.124 182.13 300.124 181.72C300.124 181.3 299.984 180.995 299.704 180.805C299.434 180.605 299.004 180.505 298.414 180.505H296.014V182.89ZM296.014 179.47H298.174C298.724 179.47 299.139 179.37 299.419 179.17C299.709 178.96 299.854 178.67 299.854 178.3C299.854 177.92 299.709 177.635 299.419 177.445C299.139 177.255 298.724 177.16 298.174 177.16H296.014V179.47ZM307.223 184.09C306.423 184.09 305.713 183.915 305.093 183.565C304.473 183.215 303.983 182.735 303.623 182.125C303.263 181.505 303.083 180.805 303.083 180.025C303.083 179.235 303.263 178.535 303.623 177.925C303.983 177.315 304.473 176.84 305.093 176.5C305.713 176.15 306.423 175.975 307.223 175.975C308.013 175.975 308.718 176.15 309.338 176.5C309.968 176.84 310.458 177.315 310.808 177.925C311.168 178.525 311.348 179.225 311.348 180.025C311.348 180.815 311.168 181.515 310.808 182.125C310.458 182.735 309.968 183.215 309.338 183.565C308.718 183.915 308.013 184.09 307.223 184.09ZM307.223 182.83C307.733 182.83 308.188 182.715 308.588 182.485C308.998 182.255 309.318 181.93 309.548 181.51C309.778 181.08 309.893 180.585 309.893 180.025C309.893 179.455 309.778 178.965 309.548 178.555C309.318 178.135 308.998 177.81 308.588 177.58C308.188 177.35 307.733 177.235 307.223 177.235C306.713 177.235 306.258 177.35 305.858 177.58C305.458 177.81 305.138 178.135 304.898 178.555C304.658 178.965 304.538 179.455 304.538 180.025C304.538 180.585 304.658 181.08 304.898 181.51C305.138 181.93 305.458 182.255 305.858 182.485C306.258 182.715 306.713 182.83 307.223 182.83ZM319.781 184.105C319.181 184.105 318.591 184.03 318.011 183.88C317.441 183.72 316.931 183.495 316.481 183.205L316.916 182.11C317.296 182.35 317.731 182.54 318.221 182.68C318.711 182.81 319.206 182.875 319.706 182.875C320.166 182.875 320.561 182.82 320.891 182.71C321.231 182.6 321.491 182.45 321.671 182.26C321.851 182.06 321.941 181.83 321.941 181.57C321.941 181.2 321.776 180.915 321.446 180.715C321.116 180.515 320.656 180.415 320.066 180.415H318.626V179.38H319.976C320.326 179.38 320.631 179.34 320.891 179.26C321.151 179.18 321.351 179.06 321.491 178.9C321.641 178.73 321.716 178.535 321.716 178.315C321.716 178.075 321.631 177.87 321.461 177.7C321.291 177.53 321.051 177.4 320.741 177.31C320.441 177.22 320.086 177.175 319.676 177.175C319.276 177.185 318.866 177.24 318.446 177.34C318.036 177.44 317.616 177.595 317.186 177.805L316.796 176.68C317.276 176.45 317.746 176.275 318.206 176.155C318.676 176.025 319.141 175.955 319.601 175.945C320.291 175.925 320.906 176.005 321.446 176.185C321.986 176.355 322.411 176.605 322.721 176.935C323.041 177.265 323.201 177.655 323.201 178.105C323.201 178.485 323.081 178.825 322.841 179.125C322.601 179.415 322.281 179.645 321.881 179.815C321.481 179.985 321.021 180.07 320.501 180.07L320.561 179.725C321.451 179.725 322.151 179.9 322.661 180.25C323.171 180.6 323.426 181.075 323.426 181.675C323.426 182.155 323.266 182.58 322.946 182.95C322.626 183.31 322.191 183.595 321.641 183.805C321.101 184.005 320.481 184.105 319.781 184.105ZM330.49 184V182.32L330.415 182.005V179.14C330.415 178.53 330.235 178.06 329.875 177.73C329.525 177.39 328.995 177.22 328.285 177.22C327.815 177.22 327.355 177.3 326.905 177.46C326.455 177.61 326.075 177.815 325.765 178.075L325.165 176.995C325.575 176.665 326.065 176.415 326.635 176.245C327.215 176.065 327.82 175.975 328.45 175.975C329.54 175.975 330.38 176.24 330.97 176.77C331.56 177.3 331.855 178.11 331.855 179.2V184H330.49ZM327.88 184.09C327.29 184.09 326.77 183.99 326.32 183.79C325.88 183.59 325.54 183.315 325.3 182.965C325.06 182.605 324.94 182.2 324.94 181.75C324.94 181.32 325.04 180.93 325.24 180.58C325.45 180.23 325.785 179.95 326.245 179.74C326.715 179.53 327.345 179.425 328.135 179.425H330.655V180.46H328.195C327.475 180.46 326.99 180.58 326.74 180.82C326.49 181.06 326.365 181.35 326.365 181.69C326.365 182.08 326.52 182.395 326.83 182.635C327.14 182.865 327.57 182.98 328.12 182.98C328.66 182.98 329.13 182.86 329.53 182.62C329.94 182.38 330.235 182.03 330.415 181.57L330.7 182.56C330.51 183.03 330.175 183.405 329.695 183.685C329.215 183.955 328.61 184.09 327.88 184.09ZM339.878 183.325V177.31H336.428L336.353 178.84C336.333 179.34 336.298 179.825 336.248 180.295C336.208 180.755 336.138 181.18 336.038 181.57C335.948 181.96 335.813 182.28 335.633 182.53C335.453 182.78 335.213 182.935 334.913 182.995L333.488 182.74C333.798 182.75 334.048 182.65 334.238 182.44C334.428 182.22 334.573 181.92 334.673 181.54C334.783 181.16 334.863 180.73 334.913 180.25C334.963 179.76 335.003 179.255 335.033 178.735L335.153 176.05H341.318V183.325H339.878ZM333.173 185.845V182.74H342.533V185.845H341.183V184H334.538V185.845H333.173ZM349.284 184V182.32L349.209 182.005V179.14C349.209 178.53 349.029 178.06 348.669 177.73C348.319 177.39 347.789 177.22 347.079 177.22C346.609 177.22 346.149 177.3 345.699 177.46C345.249 177.61 344.869 177.815 344.559 178.075L343.959 176.995C344.369 176.665 344.859 176.415 345.429 176.245C346.009 176.065 346.614 175.975 347.244 175.975C348.334 175.975 349.174 176.24 349.764 176.77C350.354 177.3 350.649 178.11 350.649 179.2V184H349.284ZM346.674 184.09C346.084 184.09 345.564 183.99 345.114 183.79C344.674 183.59 344.334 183.315 344.094 182.965C343.854 182.605 343.734 182.2 343.734 181.75C343.734 181.32 343.834 180.93 344.034 180.58C344.244 180.23 344.579 179.95 345.039 179.74C345.509 179.53 346.139 179.425 346.929 179.425H349.449V180.46H346.989C346.269 180.46 345.784 180.58 345.534 180.82C345.284 181.06 345.159 181.35 345.159 181.69C345.159 182.08 345.314 182.395 345.624 182.635C345.934 182.865 346.364 182.98 346.914 182.98C347.454 182.98 347.924 182.86 348.324 182.62C348.734 182.38 349.029 182.03 349.209 181.57L349.494 182.56C349.304 183.03 348.969 183.405 348.489 183.685C348.009 183.955 347.404 184.09 346.674 184.09ZM353.242 184V176.05H354.682V179.425H359.212V176.05H360.652V184H359.212V180.67H354.682V184H353.242ZM363.452 184V176.05H364.892V181.84L369.767 176.05H371.072V184H369.632V178.21L364.772 184H363.452ZM373.867 184V176.05H375.307V181.84L380.182 176.05H381.487V184H380.047V178.21L375.187 184H373.867ZM377.587 175.015C376.857 175.015 376.282 174.84 375.862 174.49C375.452 174.13 375.242 173.615 375.232 172.945H376.207C376.217 173.325 376.342 173.625 376.582 173.845C376.832 174.065 377.162 174.175 377.572 174.175C377.982 174.175 378.312 174.065 378.562 173.845C378.812 173.625 378.942 173.325 378.952 172.945H379.957C379.947 173.615 379.732 174.13 379.312 174.49C378.892 174.84 378.317 175.015 377.587 175.015ZM384.597 178.03C384.317 178.03 384.077 177.935 383.877 177.745C383.677 177.545 383.577 177.295 383.577 176.995C383.577 176.695 383.677 176.45 383.877 176.26C384.077 176.07 384.317 175.975 384.597 175.975C384.867 175.975 385.097 176.07 385.287 176.26C385.487 176.45 385.587 176.695 385.587 176.995C385.587 177.295 385.487 177.545 385.287 177.745C385.097 177.935 384.867 178.03 384.597 178.03ZM384.597 184.09C384.317 184.09 384.077 183.995 383.877 183.805C383.677 183.605 383.577 183.355 383.577 183.055C383.577 182.755 383.677 182.51 383.877 182.32C384.077 182.13 384.317 182.035 384.597 182.035C384.867 182.035 385.097 182.13 385.287 182.32C385.487 182.51 385.587 182.755 385.587 183.055C385.587 183.355 385.487 183.605 385.287 183.805C385.097 183.995 384.867 184.09 384.597 184.09ZM390.883 181.42V180.37L396.253 173.5H397.873L392.548 180.37L391.783 180.13H400.168V181.42H390.883ZM396.718 184V181.42L396.763 180.13V177.85H398.173V184H396.718ZM405.358 184.12C404.538 184.12 403.803 183.91 403.153 183.49C402.513 183.07 402.003 182.46 401.623 181.66C401.253 180.86 401.068 179.89 401.068 178.75C401.068 177.61 401.253 176.64 401.623 175.84C402.003 175.04 402.513 174.43 403.153 174.01C403.803 173.59 404.538 173.38 405.358 173.38C406.168 173.38 406.898 173.59 407.548 174.01C408.198 174.43 408.708 175.04 409.078 175.84C409.448 176.64 409.633 177.61 409.633 178.75C409.633 179.89 409.448 180.86 409.078 181.66C408.708 182.46 408.198 183.07 407.548 183.49C406.898 183.91 406.168 184.12 405.358 184.12ZM405.358 182.785C405.908 182.785 406.388 182.635 406.798 182.335C407.218 182.035 407.543 181.585 407.773 180.985C408.013 180.385 408.133 179.64 408.133 178.75C408.133 177.86 408.013 177.115 407.773 176.515C407.543 175.915 407.218 175.465 406.798 175.165C406.388 174.865 405.908 174.715 405.358 174.715C404.808 174.715 404.323 174.865 403.903 175.165C403.483 175.465 403.153 175.915 402.913 176.515C402.683 177.115 402.568 177.86 402.568 178.75C402.568 179.64 402.683 180.385 402.913 180.985C403.153 181.585 403.483 182.035 403.903 182.335C404.323 182.635 404.808 182.785 405.358 182.785Z" fill="black"/>
<path d="M37.165 86.5H42.275L46.37 94.69L53.825 86.5H59.25L48.645 98.26L54.91 111H49.66L45.11 102.075L36.92 111H31.53L42.975 98.435L37.165 86.5ZM57.9424 111L61.6874 92.31H66.0974L63.5424 104.98L76.2474 92.31H80.4124L76.6674 111H72.2224L74.8474 98.295L62.1424 111H57.9424ZM82.586 111L86.331 92.31H90.846L95.711 105.575H93.891L104.461 92.31H108.591L104.916 111H100.926L103.691 97L104.356 97.455L95.116 109.04H93.226L88.571 97.14L89.341 96.93L86.541 111H82.586ZM110.784 111L114.529 92.31H118.939L116.384 104.98L129.089 92.31H133.254L129.509 111H125.064L127.689 98.295L114.984 111H110.784ZM147.363 111L148.588 104.525L149.113 105.54H143.583C141.273 105.54 139.488 105.003 138.228 103.93C136.991 102.857 136.373 101.457 136.373 99.73C136.373 97.3967 137.248 95.5767 138.998 94.27C140.771 92.9633 143.186 92.31 146.243 92.31H154.958L151.248 111H147.363ZM133.923 111L140.398 103.86H144.843L138.788 111H133.923ZM148.868 103.3L150.583 94.655L151.003 95.985H145.893C144.306 95.985 143.069 96.3 142.183 96.93C141.319 97.5367 140.888 98.4467 140.888 99.66C140.888 101.387 142.043 102.25 144.353 102.25H149.673L148.868 103.3Z" fill="black"/>
</svg>
