<svg width="461" height="59" viewBox="0 0 461 59" fill="none" xmlns="http://www.w3.org/2000/svg">
<line x1="2" y1="59" x2="2" stroke="#1D445C" stroke-width="4"/>
<path d="M25.469 42V13.3H37.81C40.926 13.3 43.3723 13.9287 45.149 15.186C46.9257 16.4433 47.814 18.2747 47.814 20.68C47.814 23.0307 46.9667 24.8347 45.272 26.092C43.5773 27.322 41.3497 27.937 38.589 27.937L39.327 26.707C42.525 26.707 44.9713 27.3493 46.666 28.634C48.388 29.8913 49.249 31.7363 49.249 34.169C49.249 36.629 48.347 38.556 46.543 39.95C44.7663 41.3167 42.115 42 38.589 42H25.469ZM29.528 38.761H38.507C40.6937 38.761 42.3337 38.3647 43.427 37.572C44.5477 36.752 45.108 35.5083 45.108 33.841C45.108 32.1737 44.5477 30.9573 43.427 30.192C42.3337 29.4267 40.6937 29.044 38.507 29.044H29.528V38.761ZM29.528 25.928H37.523C39.5183 25.928 41.0353 25.5317 42.074 24.739C43.14 23.9463 43.673 22.7847 43.673 21.254C43.673 19.696 43.14 18.5207 42.074 17.728C41.0353 16.9353 39.5183 16.539 37.523 16.539H29.528V25.928ZM55.4429 42V20.27H59.3789V36.096L72.7039 20.27H76.2709V42H72.3349V26.174L59.0509 42H55.4429ZM98.7527 40.155V23.714H89.3227L89.1177 27.896C89.063 29.2627 88.9673 30.5883 88.8307 31.873C88.7213 33.1303 88.53 34.292 88.2567 35.358C88.0107 36.424 87.6417 37.2987 87.1497 37.982C86.6577 38.6653 86.0017 39.089 85.1817 39.253L81.2867 38.556C82.134 38.5833 82.8173 38.31 83.3367 37.736C83.856 37.1347 84.2523 36.3147 84.5257 35.276C84.8263 34.2373 85.045 33.062 85.1817 31.75C85.3183 30.4107 85.4277 29.0303 85.5097 27.609L85.8377 20.27H102.689V40.155H98.7527ZM80.4257 47.043V38.556H106.01V47.043H102.32V42H84.1567V47.043H80.4257ZM120.813 42.246C118.49 42.246 116.44 41.7677 114.663 40.811C112.914 39.8543 111.547 38.5423 110.563 36.875C109.607 35.2077 109.128 33.2943 109.128 31.135C109.128 28.9757 109.593 27.0623 110.522 25.395C111.479 23.7277 112.777 22.4293 114.417 21.5C116.085 20.5433 117.957 20.065 120.034 20.065C122.139 20.065 123.998 20.5297 125.61 21.459C127.223 22.3883 128.48 23.7003 129.382 25.395C130.312 27.0623 130.776 29.0167 130.776 31.258C130.776 31.422 130.763 31.6133 130.735 31.832C130.735 32.0507 130.722 32.2557 130.694 32.447H112.203V29.618H128.644L127.045 30.602C127.073 29.208 126.786 27.9643 126.184 26.871C125.583 25.7777 124.749 24.9303 123.683 24.329C122.645 23.7003 121.428 23.386 120.034 23.386C118.668 23.386 117.451 23.7003 116.385 24.329C115.319 24.9303 114.486 25.7913 113.884 26.912C113.283 28.0053 112.982 29.2627 112.982 30.684V31.34C112.982 32.7887 113.31 34.087 113.966 35.235C114.65 36.3557 115.593 37.2303 116.795 37.859C117.998 38.4877 119.378 38.802 120.936 38.802C122.221 38.802 123.383 38.5833 124.421 38.146C125.487 37.7087 126.417 37.0527 127.209 36.178L129.382 38.72C128.398 39.868 127.168 40.7427 125.692 41.344C124.244 41.9453 122.617 42.246 120.813 42.246ZM146.189 42.246C144.003 42.246 142.062 41.7677 140.367 40.811C138.673 39.8543 137.333 38.5423 136.349 36.875C135.365 35.1803 134.873 33.267 134.873 31.135C134.873 28.9757 135.365 27.0623 136.349 25.395C137.333 23.7277 138.673 22.4293 140.367 21.5C142.062 20.5433 144.003 20.065 146.189 20.065C148.349 20.065 150.276 20.5433 151.97 21.5C153.692 22.4293 155.032 23.7277 155.988 25.395C156.972 27.035 157.464 28.9483 157.464 31.135C157.464 33.2943 156.972 35.2077 155.988 36.875C155.032 38.5423 153.692 39.8543 151.97 40.811C150.276 41.7677 148.349 42.246 146.189 42.246ZM146.189 38.802C147.583 38.802 148.827 38.4877 149.92 37.859C151.041 37.2303 151.916 36.342 152.544 35.194C153.173 34.0187 153.487 32.6657 153.487 31.135C153.487 29.577 153.173 28.2377 152.544 27.117C151.916 25.969 151.041 25.0807 149.92 24.452C148.827 23.8233 147.583 23.509 146.189 23.509C144.795 23.509 143.552 23.8233 142.458 24.452C141.365 25.0807 140.49 25.969 139.834 27.117C139.178 28.2377 138.85 29.577 138.85 31.135C138.85 32.6657 139.178 34.0187 139.834 35.194C140.49 36.342 141.365 37.2303 142.458 37.859C143.552 38.4877 144.795 38.802 146.189 38.802ZM176.273 42V37.408L176.068 36.547V28.716C176.068 27.0487 175.576 25.764 174.592 24.862C173.635 23.9327 172.186 23.468 170.246 23.468C168.961 23.468 167.704 23.6867 166.474 24.124C165.244 24.534 164.205 25.0943 163.358 25.805L161.718 22.853C162.838 21.951 164.178 21.2677 165.736 20.803C167.321 20.311 168.975 20.065 170.697 20.065C173.676 20.065 175.972 20.7893 177.585 22.238C179.197 23.6867 180.004 25.9007 180.004 28.88V42H176.273ZM169.139 42.246C167.526 42.246 166.105 41.9727 164.875 41.426C163.672 40.8793 162.743 40.1277 162.087 39.171C161.431 38.187 161.103 37.08 161.103 35.85C161.103 34.6747 161.376 33.6087 161.923 32.652C162.497 31.6953 163.412 30.93 164.67 30.356C165.954 29.782 167.676 29.495 169.836 29.495H176.724V32.324H170C168.032 32.324 166.706 32.652 166.023 33.308C165.339 33.964 164.998 34.7567 164.998 35.686C164.998 36.752 165.421 37.613 166.269 38.269C167.116 38.8977 168.291 39.212 169.795 39.212C171.271 39.212 172.555 38.884 173.649 38.228C174.769 37.572 175.576 36.6153 176.068 35.358L176.847 38.064C176.327 39.3487 175.412 40.3737 174.1 41.139C172.788 41.877 171.134 42.246 169.139 42.246ZM198.612 42.246C196.808 42.246 195.155 41.836 193.651 41.016C192.175 40.1687 190.986 38.925 190.084 37.285C189.21 35.645 188.772 33.595 188.772 31.135C188.772 28.675 189.196 26.625 190.043 24.985C190.918 23.345 192.093 22.115 193.569 21.295C195.073 20.475 196.754 20.065 198.612 20.065C200.744 20.065 202.63 20.5297 204.27 21.459C205.91 22.3883 207.209 23.6867 208.165 25.354C209.122 26.994 209.6 28.921 209.6 31.135C209.6 33.349 209.122 35.2897 208.165 36.957C207.209 38.6243 205.91 39.9227 204.27 40.852C202.63 41.7813 200.744 42.246 198.612 42.246ZM187.091 49.954V20.27H190.863V26.133L190.617 31.176L191.027 36.219V49.954H187.091ZM198.284 38.802C199.678 38.802 200.922 38.4877 202.015 37.859C203.136 37.2303 204.011 36.342 204.639 35.194C205.295 34.0187 205.623 32.6657 205.623 31.135C205.623 29.577 205.295 28.2377 204.639 27.117C204.011 25.969 203.136 25.0807 202.015 24.452C200.922 23.8233 199.678 23.509 198.284 23.509C196.918 23.509 195.674 23.8233 194.553 24.452C193.46 25.0807 192.585 25.969 191.929 27.117C191.301 28.2377 190.986 29.577 190.986 31.135C190.986 32.6657 191.301 34.0187 191.929 35.194C192.585 36.342 193.46 37.2303 194.553 37.859C195.674 38.4877 196.918 38.802 198.284 38.802ZM211.154 42L220.502 29.864L220.461 31.873L211.564 20.27H215.951L222.757 29.208H221.076L227.882 20.27H232.187L223.167 31.955L223.208 29.864L232.638 42H228.169L220.994 32.488L222.593 32.734L215.541 42H211.154ZM236.78 42V20.27H240.716V36.096L254.041 20.27H257.608V42H253.672V26.174L240.388 42H236.78ZM265.248 42V20.27H275.334C277.876 20.27 279.871 20.762 281.32 21.746C282.796 22.7027 283.534 24.0693 283.534 25.846C283.534 27.6227 282.837 29.003 281.443 29.987C280.076 30.9437 278.258 31.422 275.99 31.422L276.605 30.356C279.201 30.356 281.128 30.8343 282.386 31.791C283.643 32.7477 284.272 34.1553 284.272 36.014C284.272 37.9 283.561 39.376 282.14 40.442C280.746 41.4807 278.6 42 275.703 42H265.248ZM269.102 38.966H275.416C277.056 38.966 278.286 38.72 279.106 38.228C279.926 37.7087 280.336 36.8887 280.336 35.768C280.336 34.62 279.953 33.7863 279.188 33.267C278.45 32.7203 277.274 32.447 275.662 32.447H269.102V38.966ZM269.102 29.618H275.006C276.509 29.618 277.643 29.3447 278.409 28.798C279.201 28.224 279.598 27.4313 279.598 26.42C279.598 25.3813 279.201 24.6023 278.409 24.083C277.643 23.5637 276.509 23.304 275.006 23.304H269.102V29.618ZM298.942 38.884L300.377 35.85C301.634 36.834 303.015 37.572 304.518 38.064C306.049 38.556 307.566 38.8157 309.069 38.843C310.572 38.843 311.953 38.638 313.21 38.228C314.495 37.818 315.52 37.203 316.285 36.383C317.05 35.563 317.433 34.5517 317.433 33.349C317.433 31.873 316.832 30.7523 315.629 29.987C314.454 29.2217 312.814 28.839 310.709 28.839H304.313V25.518H310.422C312.253 25.518 313.675 25.149 314.686 24.411C315.725 23.6457 316.244 22.5933 316.244 21.254C316.244 20.2427 315.93 19.3953 315.301 18.712C314.7 18.0013 313.866 17.4683 312.8 17.113C311.761 16.7577 310.572 16.58 309.233 16.58C307.921 16.5527 306.568 16.7303 305.174 17.113C303.78 17.4683 302.441 18.0423 301.156 18.835L299.844 15.473C301.593 14.489 303.411 13.8057 305.297 13.423C307.21 13.013 309.055 12.89 310.832 13.054C312.609 13.1907 314.208 13.6007 315.629 14.284C317.078 14.94 318.226 15.8147 319.073 16.908C319.948 17.974 320.385 19.2587 320.385 20.762C320.385 22.1287 320.03 23.345 319.319 24.411C318.608 25.4497 317.624 26.256 316.367 26.83C315.11 27.3767 313.647 27.65 311.98 27.65L312.144 26.543C314.057 26.543 315.711 26.8573 317.105 27.486C318.526 28.0873 319.62 28.9483 320.385 30.069C321.178 31.1897 321.574 32.488 321.574 33.964C321.574 35.358 321.219 36.6017 320.508 37.695C319.797 38.761 318.827 39.663 317.597 40.401C316.394 41.1117 315.014 41.631 313.456 41.959C311.925 42.287 310.313 42.3963 308.618 42.287C306.923 42.1777 305.242 41.8497 303.575 41.303C301.935 40.7563 300.391 39.95 298.942 38.884ZM327.749 42V20.27H331.685V29.495H344.067V20.27H348.003V42H344.067V32.898H331.685V42H327.749ZM368.981 42V37.408L368.776 36.547V28.716C368.776 27.0487 368.284 25.764 367.3 24.862C366.343 23.9327 364.894 23.468 362.954 23.468C361.669 23.468 360.412 23.6867 359.182 24.124C357.952 24.534 356.913 25.0943 356.066 25.805L354.426 22.853C355.546 21.951 356.886 21.2677 358.444 20.803C360.029 20.311 361.683 20.065 363.405 20.065C366.384 20.065 368.68 20.7893 370.293 22.238C371.905 23.6867 372.712 25.9007 372.712 28.88V42H368.981ZM361.847 42.246C360.234 42.246 358.813 41.9727 357.583 41.426C356.38 40.8793 355.451 40.1277 354.795 39.171C354.139 38.187 353.811 37.08 353.811 35.85C353.811 34.6747 354.084 33.6087 354.631 32.652C355.205 31.6953 356.12 30.93 357.378 30.356C358.662 29.782 360.384 29.495 362.544 29.495H369.432V32.324H362.708C360.74 32.324 359.414 32.652 358.731 33.308C358.047 33.964 357.706 34.7567 357.706 35.686C357.706 36.752 358.129 37.613 358.977 38.269C359.824 38.8977 360.999 39.212 362.503 39.212C363.979 39.212 365.263 38.884 366.357 38.228C367.477 37.572 368.284 36.6153 368.776 35.358L369.555 38.064C369.035 39.3487 368.12 40.3737 366.808 41.139C365.496 41.877 363.842 42.246 361.847 42.246ZM379.799 42V20.27H383.735V29.495H396.117V20.27H400.053V42H396.117V32.898H383.735V42H379.799ZM407.707 42V20.27H411.643V36.096L424.968 20.27H428.535V42H424.599V26.174L411.315 42H407.707ZM436.174 42V20.27H440.11V36.096L453.435 20.27H457.002V42H453.066V26.174L439.782 42H436.174ZM446.342 17.441C444.347 17.441 442.775 16.9627 441.627 16.006C440.507 15.022 439.933 13.6143 439.905 11.783H442.57C442.598 12.8217 442.939 13.6417 443.595 14.243C444.279 14.8443 445.181 15.145 446.301 15.145C447.422 15.145 448.324 14.8443 449.007 14.243C449.691 13.6417 450.046 12.8217 450.073 11.783H452.82C452.793 13.6143 452.205 15.022 451.057 16.006C449.909 16.9627 448.338 17.441 446.342 17.441Z" fill="#478CB7"/>
</svg>
