<svg width="437" height="207" viewBox="0 0 437 207" fill="none" xmlns="http://www.w3.org/2000/svg">
<rect width="437" height="207" rx="24" fill="#FB7F7F"/>
<path d="M22.635 34V23.5H26.73C27.65 23.5 28.435 23.645 29.085 23.935C29.735 24.225 30.235 24.645 30.585 25.195C30.935 25.745 31.11 26.4 31.11 27.16C31.11 27.92 30.935 28.575 30.585 29.125C30.235 29.665 29.735 30.085 29.085 30.385C28.435 30.675 27.65 30.82 26.73 30.82H23.46L24.135 30.115V34H22.635ZM24.135 30.265L23.46 29.515H26.685C27.645 29.515 28.37 29.31 28.86 28.9C29.36 28.49 29.61 27.91 29.61 27.16C29.61 26.41 29.36 25.83 28.86 25.42C28.37 25.01 27.645 24.805 26.685 24.805H23.46L24.135 24.055V30.265ZM33.4055 37C33.0255 37 32.6555 36.935 32.2955 36.805C31.9355 36.685 31.6255 36.505 31.3655 36.265L31.9805 35.185C32.1805 35.375 32.4005 35.52 32.6405 35.62C32.8805 35.72 33.1355 35.77 33.4055 35.77C33.7555 35.77 34.0455 35.68 34.2755 35.5C34.5055 35.32 34.7205 35 34.9205 34.54L35.4155 33.445L35.5655 33.265L38.6855 26.05H40.0955L36.2405 34.795C36.0105 35.355 35.7505 35.795 35.4605 36.115C35.1805 36.435 34.8705 36.66 34.5305 36.79C34.1905 36.93 33.8155 37 33.4055 37ZM35.2955 34.255L31.6655 26.05H33.1655L36.2555 33.13L35.2955 34.255ZM44.8151 34.09C44.0051 34.09 43.2801 33.915 42.6401 33.565C42.0101 33.215 41.5151 32.735 41.1551 32.125C40.7951 31.515 40.6151 30.815 40.6151 30.025C40.6151 29.235 40.7951 28.535 41.1551 27.925C41.5151 27.315 42.0101 26.84 42.6401 26.5C43.2801 26.15 44.0051 25.975 44.8151 25.975C45.5351 25.975 46.1751 26.12 46.7351 26.41C47.3051 26.69 47.7451 27.11 48.0551 27.67L46.9601 28.375C46.7001 27.985 46.3801 27.7 46.0001 27.52C45.6301 27.33 45.2301 27.235 44.8001 27.235C44.2801 27.235 43.8151 27.35 43.4051 27.58C42.9951 27.81 42.6701 28.135 42.4301 28.555C42.1901 28.965 42.0701 29.455 42.0701 30.025C42.0701 30.595 42.1901 31.09 42.4301 31.51C42.6701 31.93 42.9951 32.255 43.4051 32.485C43.8151 32.715 44.2801 32.83 44.8001 32.83C45.2301 32.83 45.6301 32.74 46.0001 32.56C46.3801 32.37 46.7001 32.08 46.9601 31.69L48.0551 32.38C47.7451 32.93 47.3051 33.355 46.7351 33.655C46.1751 33.945 45.5351 34.09 44.8151 34.09ZM53.2672 34.09C52.4572 34.09 51.7322 33.915 51.0922 33.565C50.4622 33.215 49.9672 32.735 49.6072 32.125C49.2472 31.515 49.0672 30.815 49.0672 30.025C49.0672 29.235 49.2472 28.535 49.6072 27.925C49.9672 27.315 50.4622 26.84 51.0922 26.5C51.7322 26.15 52.4572 25.975 53.2672 25.975C53.9872 25.975 54.6272 26.12 55.1872 26.41C55.7572 26.69 56.1972 27.11 56.5072 27.67L55.4122 28.375C55.1522 27.985 54.8322 27.7 54.4522 27.52C54.0822 27.33 53.6822 27.235 53.2522 27.235C52.7322 27.235 52.2672 27.35 51.8572 27.58C51.4472 27.81 51.1222 28.135 50.8822 28.555C50.6422 28.965 50.5222 29.455 50.5222 30.025C50.5222 30.595 50.6422 31.09 50.8822 31.51C51.1222 31.93 51.4472 32.255 51.8572 32.485C52.2672 32.715 52.7322 32.83 53.2522 32.83C53.6822 32.83 54.0822 32.74 54.4522 32.56C54.8322 32.37 55.1522 32.08 55.4122 31.69L56.5072 32.38C56.1972 32.93 55.7572 33.355 55.1872 33.655C54.6272 33.945 53.9872 34.09 53.2672 34.09ZM64.1316 34L61.0566 30.13L62.2416 29.41L65.8266 34H64.1316ZM58.3716 34V26.05H59.8116V34H58.3716ZM59.3766 30.64V29.41H62.0016V30.64H59.3766ZM62.3616 30.19L61.0266 30.01L64.0716 26.05H65.6166L62.3616 30.19ZM67.3364 34V26.05H68.7764V31.84L73.6514 26.05H74.9564V34H73.5164V28.21L68.6564 34H67.3364ZM77.7514 34V26.05H79.1914V31.84L84.0664 26.05H85.3714V34H83.9314V28.21L79.0714 34H77.7514ZM81.4714 25.015C80.7414 25.015 80.1664 24.84 79.7464 24.49C79.3364 24.13 79.1264 23.615 79.1164 22.945H80.0914C80.1014 23.325 80.2264 23.625 80.4664 23.845C80.7164 24.065 81.0464 24.175 81.4564 24.175C81.8664 24.175 82.1964 24.065 82.4464 23.845C82.6964 23.625 82.8264 23.325 82.8364 22.945H83.8414C83.8314 23.615 83.6164 24.13 83.1964 24.49C82.7764 24.84 82.2014 25.015 81.4714 25.015Z" fill="black"/>
<path d="M22.635 184V173.5H27.15C28.29 173.5 29.185 173.73 29.835 174.19C30.485 174.65 30.81 175.32 30.81 176.2C30.81 177.06 30.5 177.72 29.88 178.18C29.26 178.63 28.445 178.855 27.435 178.855L27.705 178.405C28.875 178.405 29.77 178.64 30.39 179.11C31.02 179.57 31.335 180.245 31.335 181.135C31.335 182.035 31.005 182.74 30.345 183.25C29.695 183.75 28.725 184 27.435 184H22.635ZM24.12 182.815H27.405C28.205 182.815 28.805 182.67 29.205 182.38C29.615 182.08 29.82 181.625 29.82 181.015C29.82 180.405 29.615 179.96 29.205 179.68C28.805 179.4 28.205 179.26 27.405 179.26H24.12V182.815ZM24.12 178.12H27.045C27.775 178.12 28.33 177.975 28.71 177.685C29.1 177.395 29.295 176.97 29.295 176.41C29.295 175.84 29.1 175.41 28.71 175.12C28.33 174.83 27.775 174.685 27.045 174.685H24.12V178.12ZM37.8161 184.09C37.1561 184.09 36.5511 183.94 36.0011 183.64C35.4611 183.33 35.0261 182.875 34.6961 182.275C34.3761 181.675 34.2161 180.925 34.2161 180.025C34.2161 179.125 34.3711 178.375 34.6811 177.775C35.0011 177.175 35.4311 176.725 35.9711 176.425C36.5211 176.125 37.1361 175.975 37.8161 175.975C38.5961 175.975 39.2861 176.145 39.8861 176.485C40.4861 176.825 40.9611 177.3 41.3111 177.91C41.6611 178.51 41.8361 179.215 41.8361 180.025C41.8361 180.835 41.6611 181.545 41.3111 182.155C40.9611 182.765 40.4861 183.24 39.8861 183.58C39.2861 183.92 38.5961 184.09 37.8161 184.09ZM33.6011 186.91V176.05H34.9811V178.195L34.8911 180.04L35.0411 181.885V186.91H33.6011ZM37.6961 182.83C38.2061 182.83 38.6611 182.715 39.0611 182.485C39.4711 182.255 39.7911 181.93 40.0211 181.51C40.2611 181.08 40.3811 180.585 40.3811 180.025C40.3811 179.455 40.2611 178.965 40.0211 178.555C39.7911 178.135 39.4711 177.81 39.0611 177.58C38.6611 177.35 38.2061 177.235 37.6961 177.235C37.1961 177.235 36.7411 177.35 36.3311 177.58C35.9311 177.81 35.6111 178.135 35.3711 178.555C35.1411 178.965 35.0261 179.455 35.0261 180.025C35.0261 180.585 35.1411 181.08 35.3711 181.51C35.6111 181.93 35.9311 182.255 36.3311 182.485C36.7411 182.715 37.1961 182.83 37.6961 182.83ZM47.4682 184.09C46.6182 184.09 45.8682 183.915 45.2182 183.565C44.5782 183.215 44.0782 182.735 43.7182 182.125C43.3682 181.515 43.1932 180.815 43.1932 180.025C43.1932 179.235 43.3632 178.535 43.7032 177.925C44.0532 177.315 44.5282 176.84 45.1282 176.5C45.7382 176.15 46.4232 175.975 47.1832 175.975C47.9532 175.975 48.6332 176.145 49.2232 176.485C49.8132 176.825 50.2732 177.305 50.6032 177.925C50.9432 178.535 51.1132 179.25 51.1132 180.07C51.1132 180.13 51.1082 180.2 51.0982 180.28C51.0982 180.36 51.0932 180.435 51.0832 180.505H44.3182V179.47H50.3332L49.7482 179.83C49.7582 179.32 49.6532 178.865 49.4332 178.465C49.2132 178.065 48.9082 177.755 48.5182 177.535C48.1382 177.305 47.6932 177.19 47.1832 177.19C46.6832 177.19 46.2382 177.305 45.8482 177.535C45.4582 177.755 45.1532 178.07 44.9332 178.48C44.7132 178.88 44.6032 179.34 44.6032 179.86V180.1C44.6032 180.63 44.7232 181.105 44.9632 181.525C45.2132 181.935 45.5582 182.255 45.9982 182.485C46.4382 182.715 46.9432 182.83 47.5132 182.83C47.9832 182.83 48.4082 182.75 48.7882 182.59C49.1782 182.43 49.5182 182.19 49.8082 181.87L50.6032 182.8C50.2432 183.22 49.7932 183.54 49.2532 183.76C48.7232 183.98 48.1282 184.09 47.4682 184.09ZM53.3471 184V176.05H54.8321L58.2521 181.93H57.6521L61.1621 176.05H62.5121V184H61.2071V177.67L61.4471 177.805L58.2371 183.1H57.6071L54.3821 177.7L54.6671 177.64V184H53.3471ZM70.3999 184V181.21L70.6249 181.48H68.0899C67.0299 181.48 66.1999 181.255 65.5999 180.805C65.0099 180.355 64.7149 179.7 64.7149 178.84C64.7149 177.92 65.0299 177.225 65.6599 176.755C66.2999 176.285 67.1499 176.05 68.2099 176.05H71.6899V184H70.3999ZM64.6399 184L66.7999 180.955H68.2849L66.1849 184H64.6399ZM70.3999 180.76V176.905L70.6249 177.31H68.2549C67.5949 177.31 67.0849 177.435 66.7249 177.685C66.3649 177.925 66.1849 178.325 66.1849 178.885C66.1849 179.925 66.8549 180.445 68.1949 180.445H70.6249L70.3999 180.76ZM74.8145 178.03C74.5345 178.03 74.2945 177.935 74.0945 177.745C73.8945 177.545 73.7945 177.295 73.7945 176.995C73.7945 176.695 73.8945 176.45 74.0945 176.26C74.2945 176.07 74.5345 175.975 74.8145 175.975C75.0845 175.975 75.3145 176.07 75.5045 176.26C75.7045 176.45 75.8045 176.695 75.8045 176.995C75.8045 177.295 75.7045 177.545 75.5045 177.745C75.3145 177.935 75.0845 178.03 74.8145 178.03ZM74.8145 184.09C74.5345 184.09 74.2945 183.995 74.0945 183.805C73.8945 183.605 73.7945 183.355 73.7945 183.055C73.7945 182.755 73.8945 182.51 74.0945 182.32C74.2945 182.13 74.5345 182.035 74.8145 182.035C75.0845 182.035 75.3145 182.13 75.5045 182.32C75.7045 182.51 75.8045 182.755 75.8045 183.055C75.8045 183.355 75.7045 183.605 75.5045 183.805C75.3145 183.995 75.0845 184.09 74.8145 184.09ZM84.4613 184.12C83.7213 184.12 83.0013 184.005 82.3013 183.775C81.6113 183.545 81.0463 183.235 80.6063 182.845L81.2963 181.66C81.6463 181.99 82.1013 182.26 82.6613 182.47C83.2213 182.68 83.8213 182.785 84.4613 182.785C85.2413 182.785 85.8463 182.62 86.2763 182.29C86.7163 181.95 86.9363 181.495 86.9363 180.925C86.9363 180.375 86.7263 179.935 86.3063 179.605C85.8963 179.265 85.2413 179.095 84.3413 179.095H83.5013V178.045L86.6213 174.205L86.8313 174.805H81.0863V173.5H88.0163V174.52L84.9113 178.345L84.1313 177.88H84.6263C85.8963 177.88 86.8463 178.165 87.4763 178.735C88.1163 179.305 88.4363 180.03 88.4363 180.91C88.4363 181.5 88.2913 182.04 88.0013 182.53C87.7113 183.02 87.2713 183.41 86.6813 183.7C86.1013 183.98 85.3613 184.12 84.4613 184.12ZM93.0788 184.12C92.3388 184.12 91.6188 184.005 90.9188 183.775C90.2288 183.545 89.6638 183.235 89.2238 182.845L89.9138 181.66C90.2638 181.99 90.7188 182.26 91.2788 182.47C91.8388 182.68 92.4338 182.785 93.0638 182.785C93.8638 182.785 94.4788 182.615 94.9088 182.275C95.3388 181.935 95.5538 181.48 95.5538 180.91C95.5538 180.52 95.4588 180.18 95.2688 179.89C95.0788 179.6 94.7488 179.38 94.2788 179.23C93.8188 179.07 93.1838 178.99 92.3738 178.99H89.9888L90.5438 173.5H96.4688V174.805H91.0988L91.8788 174.07L91.4438 178.405L90.6638 177.685H92.6888C93.7388 177.685 94.5838 177.82 95.2238 178.09C95.8638 178.36 96.3288 178.735 96.6188 179.215C96.9088 179.685 97.0538 180.23 97.0538 180.85C97.0538 181.45 96.9088 182 96.6188 182.5C96.3288 182.99 95.8888 183.385 95.2988 183.685C94.7188 183.975 93.9788 184.12 93.0788 184.12ZM98.977 184V176.05H100.462L103.882 181.93H103.282L106.792 176.05H108.142V184H106.837V177.67L107.077 177.805L103.867 183.1H103.237L100.012 177.7L100.297 177.64V184H98.977ZM110.945 184V176.05H112.385V181.84L117.26 176.05H118.565V184H117.125V178.21L112.265 184H110.945ZM121.36 184V176.05H122.8V179.425H127.33V176.05H128.77V184H127.33V180.67H122.8V184H121.36Z" fill="black"/>
<path d="M227.7 184L223.89 178.825L225.105 178.075L229.41 184H227.7ZM220.635 184V173.5H222.105V184H220.635ZM221.655 179.38V178.06H225.06V179.38H221.655ZM225.24 178.915L223.86 178.705L227.625 173.5H229.23L225.24 178.915ZM234.01 184.09C233.21 184.09 232.5 183.915 231.88 183.565C231.26 183.215 230.77 182.735 230.41 182.125C230.05 181.505 229.87 180.805 229.87 180.025C229.87 179.235 230.05 178.535 230.41 177.925C230.77 177.315 231.26 176.84 231.88 176.5C232.5 176.15 233.21 175.975 234.01 175.975C234.8 175.975 235.505 176.15 236.125 176.5C236.755 176.84 237.245 177.315 237.595 177.925C237.955 178.525 238.135 179.225 238.135 180.025C238.135 180.815 237.955 181.515 237.595 182.125C237.245 182.735 236.755 183.215 236.125 183.565C235.505 183.915 234.8 184.09 234.01 184.09ZM234.01 182.83C234.52 182.83 234.975 182.715 235.375 182.485C235.785 182.255 236.105 181.93 236.335 181.51C236.565 181.08 236.68 180.585 236.68 180.025C236.68 179.455 236.565 178.965 236.335 178.555C236.105 178.135 235.785 177.81 235.375 177.58C234.975 177.35 234.52 177.235 234.01 177.235C233.5 177.235 233.045 177.35 232.645 177.58C232.245 177.81 231.925 178.135 231.685 178.555C231.445 178.965 231.325 179.455 231.325 180.025C231.325 180.585 231.445 181.08 231.685 181.51C231.925 181.93 232.245 182.255 232.645 182.485C233.045 182.715 233.5 182.83 234.01 182.83ZM238.836 183.985L238.926 182.77C238.996 182.78 239.061 182.79 239.121 182.8C239.181 182.81 239.236 182.815 239.286 182.815C239.606 182.815 239.856 182.705 240.036 182.485C240.226 182.265 240.366 181.975 240.456 181.615C240.546 181.245 240.611 180.83 240.651 180.37C240.691 179.91 240.721 179.45 240.741 178.99L240.876 176.05H246.981V184H245.541V176.89L245.886 177.31H241.806L242.136 176.875L242.031 179.08C242.001 179.78 241.946 180.435 241.866 181.045C241.786 181.655 241.661 182.19 241.491 182.65C241.331 183.11 241.106 183.47 240.816 183.73C240.536 183.99 240.171 184.12 239.721 184.12C239.591 184.12 239.451 184.105 239.301 184.075C239.161 184.055 239.006 184.025 238.836 183.985ZM249.765 184V176.05H251.205V181.84L256.08 176.05H257.385V184H255.945V178.21L251.085 184H249.765ZM265.19 180.745C264.77 180.945 264.335 181.105 263.885 181.225C263.445 181.335 262.99 181.39 262.52 181.39C261.56 181.39 260.8 181.165 260.24 180.715C259.69 180.265 259.415 179.57 259.415 178.63V176.05H260.855V178.54C260.855 179.11 261.03 179.53 261.38 179.8C261.74 180.07 262.22 180.205 262.82 180.205C263.2 180.205 263.59 180.155 263.99 180.055C264.4 179.955 264.8 179.815 265.19 179.635V180.745ZM265.085 184V176.05H266.525V184H265.085ZM272.861 184.09C272.011 184.09 271.261 183.915 270.611 183.565C269.971 183.215 269.471 182.735 269.111 182.125C268.761 181.515 268.586 180.815 268.586 180.025C268.586 179.235 268.756 178.535 269.096 177.925C269.446 177.315 269.921 176.84 270.521 176.5C271.131 176.15 271.816 175.975 272.576 175.975C273.346 175.975 274.026 176.145 274.616 176.485C275.206 176.825 275.666 177.305 275.996 177.925C276.336 178.535 276.506 179.25 276.506 180.07C276.506 180.13 276.501 180.2 276.491 180.28C276.491 180.36 276.486 180.435 276.476 180.505H269.711V179.47H275.726L275.141 179.83C275.151 179.32 275.046 178.865 274.826 178.465C274.606 178.065 274.301 177.755 273.911 177.535C273.531 177.305 273.086 177.19 272.576 177.19C272.076 177.19 271.631 177.305 271.241 177.535C270.851 177.755 270.546 178.07 270.326 178.48C270.106 178.88 269.996 179.34 269.996 179.86V180.1C269.996 180.63 270.116 181.105 270.356 181.525C270.606 181.935 270.951 182.255 271.391 182.485C271.831 182.715 272.336 182.83 272.906 182.83C273.376 182.83 273.801 182.75 274.181 182.59C274.571 182.43 274.911 182.19 275.201 181.87L275.996 182.8C275.636 183.22 275.186 183.54 274.646 183.76C274.116 183.98 273.521 184.09 272.861 184.09ZM282.205 184.09C281.395 184.09 280.67 183.915 280.03 183.565C279.4 183.215 278.905 182.735 278.545 182.125C278.185 181.515 278.005 180.815 278.005 180.025C278.005 179.235 278.185 178.535 278.545 177.925C278.905 177.315 279.4 176.84 280.03 176.5C280.67 176.15 281.395 175.975 282.205 175.975C282.925 175.975 283.565 176.12 284.125 176.41C284.695 176.69 285.135 177.11 285.445 177.67L284.35 178.375C284.09 177.985 283.77 177.7 283.39 177.52C283.02 177.33 282.62 177.235 282.19 177.235C281.67 177.235 281.205 177.35 280.795 177.58C280.385 177.81 280.06 178.135 279.82 178.555C279.58 178.965 279.46 179.455 279.46 180.025C279.46 180.595 279.58 181.09 279.82 181.51C280.06 181.93 280.385 182.255 280.795 182.485C281.205 182.715 281.67 182.83 282.19 182.83C282.62 182.83 283.02 182.74 283.39 182.56C283.77 182.37 284.09 182.08 284.35 181.69L285.445 182.38C285.135 182.93 284.695 183.355 284.125 183.655C283.565 183.945 282.925 184.09 282.205 184.09ZM288.782 184V176.935L289.142 177.31H285.872V176.05H293.132V177.31H289.877L290.222 176.935V184H288.782ZM294.604 184V176.05H298.294C299.224 176.05 299.954 176.23 300.484 176.59C301.024 176.94 301.294 177.44 301.294 178.09C301.294 178.74 301.039 179.245 300.529 179.605C300.029 179.955 299.364 180.13 298.534 180.13L298.759 179.74C299.709 179.74 300.414 179.915 300.874 180.265C301.334 180.615 301.564 181.13 301.564 181.81C301.564 182.5 301.304 183.04 300.784 183.43C300.274 183.81 299.489 184 298.429 184H294.604ZM296.014 182.89H298.324C298.924 182.89 299.374 182.8 299.674 182.62C299.974 182.43 300.124 182.13 300.124 181.72C300.124 181.3 299.984 180.995 299.704 180.805C299.434 180.605 299.004 180.505 298.414 180.505H296.014V182.89ZM296.014 179.47H298.174C298.724 179.47 299.139 179.37 299.419 179.17C299.709 178.96 299.854 178.67 299.854 178.3C299.854 177.92 299.709 177.635 299.419 177.445C299.139 177.255 298.724 177.16 298.174 177.16H296.014V179.47ZM307.223 184.09C306.423 184.09 305.713 183.915 305.093 183.565C304.473 183.215 303.983 182.735 303.623 182.125C303.263 181.505 303.083 180.805 303.083 180.025C303.083 179.235 303.263 178.535 303.623 177.925C303.983 177.315 304.473 176.84 305.093 176.5C305.713 176.15 306.423 175.975 307.223 175.975C308.013 175.975 308.718 176.15 309.338 176.5C309.968 176.84 310.458 177.315 310.808 177.925C311.168 178.525 311.348 179.225 311.348 180.025C311.348 180.815 311.168 181.515 310.808 182.125C310.458 182.735 309.968 183.215 309.338 183.565C308.718 183.915 308.013 184.09 307.223 184.09ZM307.223 182.83C307.733 182.83 308.188 182.715 308.588 182.485C308.998 182.255 309.318 181.93 309.548 181.51C309.778 181.08 309.893 180.585 309.893 180.025C309.893 179.455 309.778 178.965 309.548 178.555C309.318 178.135 308.998 177.81 308.588 177.58C308.188 177.35 307.733 177.235 307.223 177.235C306.713 177.235 306.258 177.35 305.858 177.58C305.458 177.81 305.138 178.135 304.898 178.555C304.658 178.965 304.538 179.455 304.538 180.025C304.538 180.585 304.658 181.08 304.898 181.51C305.138 181.93 305.458 182.255 305.858 182.485C306.258 182.715 306.713 182.83 307.223 182.83ZM319.781 184.105C319.181 184.105 318.591 184.03 318.011 183.88C317.441 183.72 316.931 183.495 316.481 183.205L316.916 182.11C317.296 182.35 317.731 182.54 318.221 182.68C318.711 182.81 319.206 182.875 319.706 182.875C320.166 182.875 320.561 182.82 320.891 182.71C321.231 182.6 321.491 182.45 321.671 182.26C321.851 182.06 321.941 181.83 321.941 181.57C321.941 181.2 321.776 180.915 321.446 180.715C321.116 180.515 320.656 180.415 320.066 180.415H318.626V179.38H319.976C320.326 179.38 320.631 179.34 320.891 179.26C321.151 179.18 321.351 179.06 321.491 178.9C321.641 178.73 321.716 178.535 321.716 178.315C321.716 178.075 321.631 177.87 321.461 177.7C321.291 177.53 321.051 177.4 320.741 177.31C320.441 177.22 320.086 177.175 319.676 177.175C319.276 177.185 318.866 177.24 318.446 177.34C318.036 177.44 317.616 177.595 317.186 177.805L316.796 176.68C317.276 176.45 317.746 176.275 318.206 176.155C318.676 176.025 319.141 175.955 319.601 175.945C320.291 175.925 320.906 176.005 321.446 176.185C321.986 176.355 322.411 176.605 322.721 176.935C323.041 177.265 323.201 177.655 323.201 178.105C323.201 178.485 323.081 178.825 322.841 179.125C322.601 179.415 322.281 179.645 321.881 179.815C321.481 179.985 321.021 180.07 320.501 180.07L320.561 179.725C321.451 179.725 322.151 179.9 322.661 180.25C323.171 180.6 323.426 181.075 323.426 181.675C323.426 182.155 323.266 182.58 322.946 182.95C322.626 183.31 322.191 183.595 321.641 183.805C321.101 184.005 320.481 184.105 319.781 184.105ZM330.49 184V182.32L330.415 182.005V179.14C330.415 178.53 330.235 178.06 329.875 177.73C329.525 177.39 328.995 177.22 328.285 177.22C327.815 177.22 327.355 177.3 326.905 177.46C326.455 177.61 326.075 177.815 325.765 178.075L325.165 176.995C325.575 176.665 326.065 176.415 326.635 176.245C327.215 176.065 327.82 175.975 328.45 175.975C329.54 175.975 330.38 176.24 330.97 176.77C331.56 177.3 331.855 178.11 331.855 179.2V184H330.49ZM327.88 184.09C327.29 184.09 326.77 183.99 326.32 183.79C325.88 183.59 325.54 183.315 325.3 182.965C325.06 182.605 324.94 182.2 324.94 181.75C324.94 181.32 325.04 180.93 325.24 180.58C325.45 180.23 325.785 179.95 326.245 179.74C326.715 179.53 327.345 179.425 328.135 179.425H330.655V180.46H328.195C327.475 180.46 326.99 180.58 326.74 180.82C326.49 181.06 326.365 181.35 326.365 181.69C326.365 182.08 326.52 182.395 326.83 182.635C327.14 182.865 327.57 182.98 328.12 182.98C328.66 182.98 329.13 182.86 329.53 182.62C329.94 182.38 330.235 182.03 330.415 181.57L330.7 182.56C330.51 183.03 330.175 183.405 329.695 183.685C329.215 183.955 328.61 184.09 327.88 184.09ZM339.878 183.325V177.31H336.428L336.353 178.84C336.333 179.34 336.298 179.825 336.248 180.295C336.208 180.755 336.138 181.18 336.038 181.57C335.948 181.96 335.813 182.28 335.633 182.53C335.453 182.78 335.213 182.935 334.913 182.995L333.488 182.74C333.798 182.75 334.048 182.65 334.238 182.44C334.428 182.22 334.573 181.92 334.673 181.54C334.783 181.16 334.863 180.73 334.913 180.25C334.963 179.76 335.003 179.255 335.033 178.735L335.153 176.05H341.318V183.325H339.878ZM333.173 185.845V182.74H342.533V185.845H341.183V184H334.538V185.845H333.173ZM349.284 184V182.32L349.209 182.005V179.14C349.209 178.53 349.029 178.06 348.669 177.73C348.319 177.39 347.789 177.22 347.079 177.22C346.609 177.22 346.149 177.3 345.699 177.46C345.249 177.61 344.869 177.815 344.559 178.075L343.959 176.995C344.369 176.665 344.859 176.415 345.429 176.245C346.009 176.065 346.614 175.975 347.244 175.975C348.334 175.975 349.174 176.24 349.764 176.77C350.354 177.3 350.649 178.11 350.649 179.2V184H349.284ZM346.674 184.09C346.084 184.09 345.564 183.99 345.114 183.79C344.674 183.59 344.334 183.315 344.094 182.965C343.854 182.605 343.734 182.2 343.734 181.75C343.734 181.32 343.834 180.93 344.034 180.58C344.244 180.23 344.579 179.95 345.039 179.74C345.509 179.53 346.139 179.425 346.929 179.425H349.449V180.46H346.989C346.269 180.46 345.784 180.58 345.534 180.82C345.284 181.06 345.159 181.35 345.159 181.69C345.159 182.08 345.314 182.395 345.624 182.635C345.934 182.865 346.364 182.98 346.914 182.98C347.454 182.98 347.924 182.86 348.324 182.62C348.734 182.38 349.029 182.03 349.209 181.57L349.494 182.56C349.304 183.03 348.969 183.405 348.489 183.685C348.009 183.955 347.404 184.09 346.674 184.09ZM353.242 184V176.05H354.682V179.425H359.212V176.05H360.652V184H359.212V180.67H354.682V184H353.242ZM363.452 184V176.05H364.892V181.84L369.767 176.05H371.072V184H369.632V178.21L364.772 184H363.452ZM373.867 184V176.05H375.307V181.84L380.182 176.05H381.487V184H380.047V178.21L375.187 184H373.867ZM377.587 175.015C376.857 175.015 376.282 174.84 375.862 174.49C375.452 174.13 375.242 173.615 375.232 172.945H376.207C376.217 173.325 376.342 173.625 376.582 173.845C376.832 174.065 377.162 174.175 377.572 174.175C377.982 174.175 378.312 174.065 378.562 173.845C378.812 173.625 378.942 173.325 378.952 172.945H379.957C379.947 173.615 379.732 174.13 379.312 174.49C378.892 174.84 378.317 175.015 377.587 175.015ZM384.597 178.03C384.317 178.03 384.077 177.935 383.877 177.745C383.677 177.545 383.577 177.295 383.577 176.995C383.577 176.695 383.677 176.45 383.877 176.26C384.077 176.07 384.317 175.975 384.597 175.975C384.867 175.975 385.097 176.07 385.287 176.26C385.487 176.45 385.587 176.695 385.587 176.995C385.587 177.295 385.487 177.545 385.287 177.745C385.097 177.935 384.867 178.03 384.597 178.03ZM384.597 184.09C384.317 184.09 384.077 183.995 383.877 183.805C383.677 183.605 383.577 183.355 383.577 183.055C383.577 182.755 383.677 182.51 383.877 182.32C384.077 182.13 384.317 182.035 384.597 182.035C384.867 182.035 385.097 182.13 385.287 182.32C385.487 182.51 385.587 182.755 385.587 183.055C385.587 183.355 385.487 183.605 385.287 183.805C385.097 183.995 384.867 184.09 384.597 184.09ZM394.243 184.12C393.503 184.12 392.783 184.005 392.083 183.775C391.393 183.545 390.828 183.235 390.388 182.845L391.078 181.66C391.428 181.99 391.883 182.26 392.443 182.47C393.003 182.68 393.603 182.785 394.243 182.785C395.023 182.785 395.628 182.62 396.058 182.29C396.498 181.95 396.718 181.495 396.718 180.925C396.718 180.375 396.508 179.935 396.088 179.605C395.678 179.265 395.023 179.095 394.123 179.095H393.283V178.045L396.403 174.205L396.613 174.805H390.868V173.5H397.798V174.52L394.693 178.345L393.913 177.88H394.408C395.678 177.88 396.628 178.165 397.258 178.735C397.898 179.305 398.218 180.03 398.218 180.91C398.218 181.5 398.073 182.04 397.783 182.53C397.493 183.02 397.053 183.41 396.463 183.7C395.883 183.98 395.143 184.12 394.243 184.12ZM403.907 184.12C403.087 184.12 402.352 183.91 401.702 183.49C401.062 183.07 400.552 182.46 400.172 181.66C399.802 180.86 399.617 179.89 399.617 178.75C399.617 177.61 399.802 176.64 400.172 175.84C400.552 175.04 401.062 174.43 401.702 174.01C402.352 173.59 403.087 173.38 403.907 173.38C404.717 173.38 405.447 173.59 406.097 174.01C406.747 174.43 407.257 175.04 407.627 175.84C407.997 176.64 408.182 177.61 408.182 178.75C408.182 179.89 407.997 180.86 407.627 181.66C407.257 182.46 406.747 183.07 406.097 183.49C405.447 183.91 404.717 184.12 403.907 184.12ZM403.907 182.785C404.457 182.785 404.937 182.635 405.347 182.335C405.767 182.035 406.092 181.585 406.322 180.985C406.562 180.385 406.682 179.64 406.682 178.75C406.682 177.86 406.562 177.115 406.322 176.515C406.092 175.915 405.767 175.465 405.347 175.165C404.937 174.865 404.457 174.715 403.907 174.715C403.357 174.715 402.872 174.865 402.452 175.165C402.032 175.465 401.702 175.915 401.462 176.515C401.232 177.115 401.117 177.86 401.117 178.75C401.117 179.64 401.232 180.385 401.462 180.985C401.702 181.585 402.032 182.035 402.452 182.335C402.872 182.635 403.357 182.785 403.907 182.785Z" fill="black"/>
<path d="M34.435 111L39.335 86.5H48.785C51.7483 86.5 54.035 87.1533 55.645 88.46C57.2783 89.7667 58.095 91.575 58.095 93.885C58.095 95.9617 57.6167 97.7583 56.66 99.275C55.7267 100.768 54.385 101.923 52.635 102.74C50.885 103.533 48.8083 103.93 46.405 103.93H38.425L40.84 101.76L38.985 111H34.435ZM40.735 102.285L39.125 100.08H46.58C48.7733 100.08 50.4767 99.59 51.69 98.61C52.9033 97.63 53.51 96.195 53.51 94.305C53.51 92.975 53.055 91.9833 52.145 91.33C51.2583 90.6767 49.975 90.35 48.295 90.35H41.19L43.57 88.075L40.735 102.285ZM59.9746 118.035C59.0413 118.035 58.1313 117.883 57.2446 117.58C56.3346 117.277 55.6113 116.88 55.0746 116.39L57.2446 113.205C57.6413 113.555 58.0846 113.835 58.5746 114.045C59.0879 114.278 59.6713 114.395 60.3246 114.395C61.0479 114.395 61.6896 114.197 62.2496 113.8C62.8329 113.427 63.4163 112.773 63.9996 111.84L65.6446 109.285L66.0646 108.83L76.3546 92.31H80.7296L67.8496 112.645C66.9863 113.998 66.1579 115.072 65.3646 115.865C64.5713 116.658 63.7429 117.218 62.8796 117.545C62.0396 117.872 61.0713 118.035 59.9746 118.035ZM64.7696 111.665L60.1846 92.31H64.5596L68.2346 108.445L64.7696 111.665ZM88.8906 111.245C87.0473 111.245 85.4256 110.907 84.0256 110.23C82.649 109.53 81.5873 108.573 80.8406 107.36C80.094 106.123 79.7206 104.677 79.7206 103.02C79.7206 100.92 80.199 99.0533 81.1556 97.42C82.1123 95.7633 83.4306 94.4683 85.1106 93.535C86.7906 92.5783 88.7273 92.1 90.9206 92.1C92.8106 92.1 94.4323 92.4733 95.7856 93.22C97.1623 93.9433 98.224 95.0283 98.9706 96.475L95.2256 98.4C94.8056 97.5133 94.199 96.86 93.4056 96.44C92.6356 96.02 91.6906 95.81 90.5706 95.81C89.3573 95.81 88.2606 96.1133 87.2806 96.72C86.3006 97.3033 85.5306 98.12 84.9706 99.17C84.4106 100.22 84.1306 101.433 84.1306 102.81C84.1306 104.257 84.5623 105.4 85.4256 106.24C86.289 107.08 87.514 107.5 89.1006 107.5C90.1273 107.5 91.084 107.29 91.9706 106.87C92.8573 106.45 93.604 105.797 94.2106 104.91L97.4306 107.08C96.5673 108.387 95.3773 109.413 93.8606 110.16C92.344 110.883 90.6873 111.245 88.8906 111.245ZM109.364 111.245C107.521 111.245 105.899 110.907 104.499 110.23C103.123 109.53 102.061 108.573 101.314 107.36C100.568 106.123 100.194 104.677 100.194 103.02C100.194 100.92 100.673 99.0533 101.629 97.42C102.586 95.7633 103.904 94.4683 105.584 93.535C107.264 92.5783 109.201 92.1 111.394 92.1C113.284 92.1 114.906 92.4733 116.259 93.22C117.636 93.9433 118.698 95.0283 119.444 96.475L115.699 98.4C115.279 97.5133 114.673 96.86 113.879 96.44C113.109 96.02 112.164 95.81 111.044 95.81C109.831 95.81 108.734 96.1133 107.754 96.72C106.774 97.3033 106.004 98.12 105.444 99.17C104.884 100.22 104.604 101.433 104.604 102.81C104.604 104.257 105.036 105.4 105.899 106.24C106.763 107.08 107.988 107.5 109.574 107.5C110.601 107.5 111.558 107.29 112.444 106.87C113.331 106.45 114.078 105.797 114.684 104.91L117.904 107.08C117.041 108.387 115.851 109.413 114.334 110.16C112.818 110.883 111.161 111.245 109.364 111.245ZM134.101 111L129.341 101.97L132.981 100.29L139.176 111H134.101ZM120.696 111L124.441 92.31H128.816L125.071 111H120.696ZM125.316 103.51L125.981 99.87H132.316L131.651 103.51H125.316ZM133.121 102.18L128.991 101.655L137.776 92.31H142.571L133.121 102.18ZM142.264 111L146.009 92.31H150.419L147.864 104.98L160.569 92.31H164.734L160.989 111H156.544L159.169 98.295L146.464 111H142.264ZM166.907 111L170.652 92.31H175.062L172.507 104.98L185.212 92.31H189.377L185.632 111H181.187L183.812 98.295L171.107 111H166.907ZM180.452 90C178.516 90 177.104 89.5683 176.217 88.705C175.354 87.8183 175.074 86.5583 175.377 84.925H178.247C178.084 85.8117 178.224 86.5 178.667 86.99C179.111 87.48 179.787 87.725 180.697 87.725C181.584 87.725 182.319 87.4917 182.902 87.025C183.509 86.535 183.917 85.835 184.127 84.925H187.032C186.729 86.605 186.017 87.8767 184.897 88.74C183.777 89.58 182.296 90 180.452 90ZM213.159 111L214.384 104.525L214.909 105.54H209.379C207.069 105.54 205.284 105.003 204.024 103.93C202.787 102.857 202.169 101.457 202.169 99.73C202.169 97.3967 203.044 95.5767 204.794 94.27C206.567 92.9633 208.982 92.31 212.039 92.31H220.754L217.044 111H213.159ZM199.719 111L206.194 103.86H210.639L204.584 111H199.719ZM214.664 103.3L216.379 94.655L216.799 95.985H211.689C210.102 95.985 208.865 96.3 207.979 96.93C207.115 97.5367 206.684 98.4467 206.684 99.66C206.684 101.387 207.839 102.25 210.149 102.25H215.469L214.664 103.3ZM228.639 111.315C225.815 111.315 223.307 110.627 221.114 109.25L222.689 106.205C223.459 106.695 224.369 107.068 225.419 107.325C226.492 107.582 227.612 107.71 228.779 107.71C229.852 107.71 230.762 107.593 231.509 107.36C232.279 107.127 232.874 106.8 233.294 106.38C233.737 105.937 233.959 105.447 233.959 104.91C233.959 104.257 233.679 103.767 233.119 103.44C232.559 103.09 231.765 102.915 230.739 102.915H227.134L227.589 99.94H230.599C231.812 99.94 232.78 99.73 233.504 99.31C234.227 98.89 234.589 98.3417 234.589 97.665C234.589 97.0117 234.297 96.51 233.714 96.16C233.13 95.81 232.255 95.635 231.089 95.635C230.155 95.635 229.234 95.7517 228.324 95.985C227.437 96.2183 226.445 96.58 225.349 97.07L224.334 93.57C225.524 93.0333 226.725 92.6483 227.939 92.415C229.152 92.1583 230.33 92.03 231.474 92.03C232.967 92.03 234.285 92.2283 235.429 92.625C236.572 93.0217 237.459 93.5933 238.089 94.34C238.719 95.0633 239.034 95.9267 239.034 96.93C239.034 97.77 238.777 98.54 238.264 99.24C237.774 99.94 237.085 100.512 236.199 100.955C235.312 101.398 234.274 101.678 233.084 101.795L232.979 100.955C234.612 101.095 235.907 101.538 236.864 102.285C237.82 103.032 238.299 104.023 238.299 105.26C238.299 106.403 237.879 107.43 237.039 108.34C236.199 109.25 235.044 109.973 233.574 110.51C232.127 111.047 230.482 111.315 228.639 111.315ZM260.455 111L264.165 92.31H268.54L264.795 111H260.455ZM252.895 98.435C255.042 98.435 256.663 98.8783 257.76 99.765C258.857 100.628 259.405 101.923 259.405 103.65C259.405 105.143 259.02 106.438 258.25 107.535C257.503 108.632 256.453 109.483 255.1 110.09C253.747 110.697 252.137 111 250.27 111H241.59L245.335 92.38H249.675L248.485 98.435H252.895ZM250.27 107.815C251.227 107.815 252.055 107.663 252.755 107.36C253.455 107.033 254.003 106.59 254.4 106.03C254.797 105.447 254.995 104.77 254.995 104C254.995 102.32 253.863 101.48 251.6 101.48H247.855L246.63 107.815H250.27ZM284.116 111L279.356 101.97L282.996 100.29L289.191 111H284.116ZM270.711 111L274.456 92.31H278.831L275.086 111H270.711ZM275.331 103.51L275.996 99.87H282.331L281.666 103.51H275.331ZM283.136 102.18L279.006 101.655L287.791 92.31H292.586L283.136 102.18Z" fill="black"/>
</svg>
