<svg width="196" height="68" viewBox="0 0 196 68" fill="none" xmlns="http://www.w3.org/2000/svg">
<rect width="196" height="68" rx="13" fill="#74A8C8"/>
<path d="M91.33 23H94.33V44H91.33V23ZM79.27 44H76.27V23H79.27V44ZM91.6 34.64H78.97V32.03H91.6V34.64ZM110.149 44V40.64L109.999 40.01V34.28C109.999 33.06 109.639 32.12 108.919 31.46C108.219 30.78 107.159 30.44 105.739 30.44C104.799 30.44 103.879 30.6 102.979 30.92C102.079 31.22 101.319 31.63 100.699 32.15L99.4994 29.99C100.319 29.33 101.299 28.83 102.439 28.49C103.599 28.13 104.809 27.95 106.069 27.95C108.249 27.95 109.929 28.48 111.109 29.54C112.289 30.6 112.879 32.22 112.879 34.4V44H110.149ZM104.929 44.18C103.749 44.18 102.709 43.98 101.809 43.58C100.929 43.18 100.249 42.63 99.7694 41.93C99.2894 41.21 99.0494 40.4 99.0494 39.5C99.0494 38.64 99.2494 37.86 99.6494 37.16C100.069 36.46 100.739 35.9 101.659 35.48C102.599 35.06 103.859 34.85 105.439 34.85H110.479V36.92H105.559C104.119 36.92 103.149 37.16 102.649 37.64C102.149 38.12 101.899 38.7 101.899 39.38C101.899 40.16 102.209 40.79 102.829 41.27C103.449 41.73 104.309 41.96 105.409 41.96C106.489 41.96 107.429 41.72 108.229 41.24C109.049 40.76 109.639 40.06 109.999 39.14L110.569 41.12C110.189 42.06 109.519 42.81 108.559 43.37C107.599 43.91 106.389 44.18 104.929 44.18ZM122.452 44.21C121.252 44.21 120.072 44.06 118.912 43.76C117.772 43.44 116.752 42.99 115.852 42.41L116.722 40.22C117.482 40.7 118.352 41.08 119.332 41.36C120.312 41.62 121.302 41.75 122.302 41.75C123.222 41.75 124.012 41.64 124.672 41.42C125.352 41.2 125.872 40.9 126.232 40.52C126.592 40.12 126.772 39.66 126.772 39.14C126.772 38.4 126.442 37.83 125.782 37.43C125.122 37.03 124.202 36.83 123.022 36.83H120.142V34.76H122.842C123.542 34.76 124.152 34.68 124.672 34.52C125.192 34.36 125.592 34.12 125.872 33.8C126.172 33.46 126.322 33.07 126.322 32.63C126.322 32.15 126.152 31.74 125.812 31.4C125.472 31.06 124.992 30.8 124.372 30.62C123.772 30.44 123.062 30.35 122.242 30.35C121.442 30.37 120.622 30.48 119.782 30.68C118.962 30.88 118.122 31.19 117.262 31.61L116.482 29.36C117.442 28.9 118.382 28.55 119.302 28.31C120.242 28.05 121.172 27.91 122.092 27.89C123.472 27.85 124.702 28.01 125.782 28.37C126.862 28.71 127.712 29.21 128.332 29.87C128.972 30.53 129.292 31.31 129.292 32.21C129.292 32.97 129.052 33.65 128.572 34.25C128.092 34.83 127.452 35.29 126.652 35.63C125.852 35.97 124.932 36.14 123.892 36.14L124.012 35.45C125.792 35.45 127.192 35.8 128.212 36.5C129.232 37.2 129.742 38.15 129.742 39.35C129.742 40.31 129.422 41.16 128.782 41.9C128.142 42.62 127.272 43.19 126.172 43.61C125.092 44.01 123.852 44.21 122.452 44.21ZM143.87 44V40.64L143.72 40.01V34.28C143.72 33.06 143.36 32.12 142.64 31.46C141.94 30.78 140.88 30.44 139.46 30.44C138.52 30.44 137.6 30.6 136.7 30.92C135.8 31.22 135.04 31.63 134.42 32.15L133.22 29.99C134.04 29.33 135.02 28.83 136.16 28.49C137.32 28.13 138.53 27.95 139.79 27.95C141.97 27.95 143.65 28.48 144.83 29.54C146.01 30.6 146.6 32.22 146.6 34.4V44H143.87ZM138.65 44.18C137.47 44.18 136.43 43.98 135.53 43.58C134.65 43.18 133.97 42.63 133.49 41.93C133.01 41.21 132.77 40.4 132.77 39.5C132.77 38.64 132.97 37.86 133.37 37.16C133.79 36.46 134.46 35.9 135.38 35.48C136.32 35.06 137.58 34.85 139.16 34.85H144.2V36.92H139.28C137.84 36.92 136.87 37.16 136.37 37.64C135.87 38.12 135.62 38.7 135.62 39.38C135.62 40.16 135.93 40.79 136.55 41.27C137.17 41.73 138.03 41.96 139.13 41.96C140.21 41.96 141.15 41.72 141.95 41.24C142.77 40.76 143.36 40.06 143.72 39.14L144.29 41.12C143.91 42.06 143.24 42.81 142.28 43.37C141.32 43.91 140.11 44.18 138.65 44.18ZM162.646 42.65V30.62H155.746L155.596 33.68C155.556 34.68 155.486 35.65 155.386 36.59C155.306 37.51 155.166 38.36 154.966 39.14C154.786 39.92 154.516 40.56 154.156 41.06C153.796 41.56 153.316 41.87 152.716 41.99L149.866 41.48C150.486 41.5 150.986 41.3 151.366 40.88C151.746 40.44 152.036 39.84 152.236 39.08C152.456 38.32 152.616 37.46 152.716 36.5C152.816 35.52 152.896 34.51 152.956 33.47L153.196 28.1H165.526V42.65H162.646ZM149.236 47.69V41.48H167.956V47.69H165.256V44H151.966V47.69H149.236Z" fill="#213F51"/>
<path d="M48.325 46.85L23.685 37.115V32.385L48.325 22.65V27.215L25.5 36.015V33.485L48.325 42.285V46.85Z" fill="#213F51"/>
</svg>
